<svg xmlns="http://www.w3.org/2000/svg" xmlns:xlink="http://www.w3.org/1999/xlink" width="225" zoomAndPan="magnify" viewBox="0 0 168.75 168.75" height="225" preserveAspectRatio="xMidYMid meet" version="1.0"><path fill="#00b7d6" d="M 76.082031 34.421875 C 103.613281 29.886719 129.59375 48.550781 134.128906 76.082031 C 138.636719 103.613281 120 129.59375 92.46875 134.128906 C 64.933594 138.636719 38.929688 120 34.421875 92.46875 C 29.886719 64.910156 48.550781 38.929688 76.082031 34.421875 Z M 76.082031 34.421875 " fill-opacity="1" fill-rule="evenodd"/><path fill="#8dc73f" d="M 76.082031 34.421875 C 78.761719 33.972656 81.417969 33.746094 84.074219 33.746094 C 86.328125 33.371094 81.96875 39.480469 75.105469 40.058594 C 69.894531 46.871094 60.175781 50.929688 52.585938 44.917969 C 59.148438 39.609375 67.140625 35.875 76.082031 34.421875 Z M 76.082031 34.421875 " fill-opacity="1" fill-rule="evenodd"/><path fill="#8dc73f" d="M 117.996094 121.902344 L 117.96875 121.902344 L 114.488281 124.785156 C 108.199219 129.46875 100.734375 132.75 92.46875 134.128906 C 85.226562 135.304688 78.085938 134.90625 71.421875 133.125 L 65.484375 131.171875 C 73.902344 132.273438 77.710938 134.253906 83.898438 126.613281 C 88.960938 122.554688 88.734375 128.242188 91.164062 129.066406 C 100.109375 126.664062 111.582031 111.03125 117.996094 121.902344 Z M 117.996094 121.902344 " fill-opacity="1" fill-rule="evenodd"/><path fill="#8dc73f" d="M 113.035156 42.738281 C 123.90625 50.28125 131.824219 62.003906 134.128906 76.082031 C 134.679688 79.441406 134.878906 82.773438 134.78125 86.027344 C 128.742188 92.867188 126.363281 77.460938 121.675781 74.203125 C 117.21875 70.496094 111.632812 76.234375 116.292969 79.515625 C 126.914062 86.378906 112.835938 88.757812 111.105469 93.394531 C 114.136719 98.027344 113.535156 101.609375 108.175781 103.816406 C 108.300781 111.808594 106.394531 116.039062 101.636719 115.140625 C 85.550781 127.164062 80.941406 124.457031 83.246094 112.882812 C 85.601562 100.984375 85.253906 93.644531 80.441406 93.769531 C 63.582031 93.644531 55.792969 74.230469 77.058594 67.617188 C 86.503906 65.136719 91.039062 67.714844 92.117188 74.152344 C 99.632812 73.351562 105.84375 79.414062 109.902344 85.425781 C 114.6875 88.007812 108.925781 78.613281 108.425781 75.207031 C 105.871094 72.199219 109.777344 66.863281 100.757812 66.210938 C 96.601562 65.058594 89.234375 65.058594 88.984375 60.703125 C 85.753906 60.703125 79.515625 64.433594 79.339844 60.726562 C 77.910156 51.207031 109.203125 63.207031 113.035156 42.738281 Z M 113.035156 42.738281 " fill-opacity="1" fill-rule="evenodd"/><path fill="#8dc73f" d="M 41.636719 111.40625 C 38.078125 105.820312 35.550781 99.429688 34.421875 92.46875 C 33.121094 84.574219 33.71875 76.808594 35.898438 69.644531 C 42.6875 65.761719 40.035156 80.191406 42.113281 85.476562 C 51.382812 89.636719 50.582031 96.726562 45.769531 98.230469 C 44.390625 102.636719 50.253906 117.019531 41.636719 111.40625 Z M 41.636719 111.40625 " fill-opacity="1" fill-rule="evenodd"/><path fill="#8dc73f" d="M 50.40625 51.734375 C 50.855469 54.488281 53.886719 56.292969 57.144531 55.742188 C 60.425781 55.214844 62.707031 52.535156 62.253906 49.777344 C 61.953125 47.925781 49.929688 48.828125 50.40625 51.734375 Z M 50.40625 51.734375 " fill-opacity="1" fill-rule="evenodd"/></svg>