<svg xmlns="http://www.w3.org/2000/svg" xmlns:xlink="http://www.w3.org/1999/xlink" width="225" zoomAndPan="magnify" viewBox="0 0 168.75 168.75" height="225" preserveAspectRatio="xMidYMid meet" version="1.0"><defs><clipPath id="5734118392"><path d="M 33.75 33.75 L 135 33.75 L 135 135 L 33.75 135 Z M 33.75 33.75 " clip-rule="nonzero"/></clipPath><clipPath id="7c2259ad97"><path d="M 33.75 46 L 132 46 L 132 102 L 33.75 102 Z M 33.75 46 " clip-rule="nonzero"/></clipPath><clipPath id="dbbe844460"><path d="M 33.75 55 L 131 55 L 131 96 L 33.75 96 Z M 33.75 55 " clip-rule="nonzero"/></clipPath></defs><g clip-path="url(#5734118392)"><path fill="#f38120" d="M 84.363281 33.75 C 112.328125 33.75 135 56.394531 135 84.363281 C 135 112.328125 112.328125 135 84.363281 135 C 56.421875 135 33.75 112.328125 33.75 84.363281 C 33.75 56.394531 56.421875 33.75 84.363281 33.75 Z M 84.363281 33.75 " fill-opacity="1" fill-rule="evenodd"/></g><path fill="#f89d32" d="M 134.976562 82.957031 C 135 83.433594 135 83.886719 135 84.363281 C 135 90.613281 133.871094 96.5625 131.8125 102.085938 C 130.808594 102.238281 129.675781 102.339844 128.246094 102.339844 C 123.453125 102.339844 120.890625 101.535156 117.324219 104.921875 C 115.066406 107.058594 108.085938 101.660156 105.125 106.957031 C 98.621094 118.679688 92.722656 109.191406 87.800781 114.515625 C 79.265625 123.726562 66.964844 119.761719 59.960938 119.734375 C 53.105469 119.710938 53.207031 120.890625 51.097656 122.523438 C 48.210938 119.988281 45.601562 117.148438 43.339844 114.035156 C 48.664062 110.648438 57.675781 115.191406 60.761719 106.730469 C 62.695312 101.359375 65.886719 92.621094 84.210938 95.410156 C 98.019531 97.492188 97.265625 93.351562 107.484375 88.65625 C 113.785156 85.769531 122.621094 88.152344 128.398438 84.738281 C 128.523438 84.664062 132.714844 83.308594 134.976562 82.957031 Z M 134.976562 82.957031 " fill-opacity="1" fill-rule="evenodd"/><path fill="#dd5426" d="M 132.992188 70.179688 C 133.542969 72.085938 133.996094 74.042969 134.320312 76.027344 C 131.636719 76.003906 129.101562 75.550781 125.484375 78.3125 C 122.449219 80.671875 117.550781 81.425781 113.835938 81.425781 C 100.757812 81.425781 104.371094 84.5625 95.359375 87.777344 C 87.324219 90.613281 78.664062 88.453125 68.921875 93.625 C 66.210938 95.082031 61.039062 95.234375 58.855469 98.921875 C 57.574219 101.058594 56.445312 98.570312 54.539062 103.265625 C 53.707031 105.351562 49.089844 101.9375 44.34375 107.636719 C 43.742188 108.339844 42.183594 109.417969 40.78125 110.144531 C 39.800781 108.488281 38.921875 106.78125 38.144531 105.023438 C 40.730469 102.640625 42.160156 97.542969 52.832031 98.949219 C 56.070312 99.375 60.585938 90.789062 67.792969 91.339844 C 67.917969 91.339844 73.515625 90.335938 74.34375 89.660156 C 83.382812 82.328125 88.203125 87.199219 93.097656 85.039062 C 93.148438 85.015625 97.769531 81.574219 99.527344 80.796875 C 107.683594 77.132812 107.9375 80.445312 114.113281 78.261719 C 118.730469 76.628906 115.820312 74.195312 124.078125 74.195312 C 131.835938 74.195312 128.546875 72.6875 132.992188 70.179688 Z M 132.992188 70.179688 " fill-opacity="1" fill-rule="evenodd"/><g clip-path="url(#7c2259ad97)"><path fill="#f8af22" d="M 118.003906 46.527344 C 123.953125 51.824219 128.648438 58.480469 131.5625 66.011719 C 129 69.398438 124.65625 71.835938 120.339844 71.332031 C 117.023438 70.957031 119.484375 65.132812 113.082031 71.257812 C 109.769531 74.421875 109.191406 65.910156 105.976562 70.65625 C 102.511719 75.726562 98.421875 69.375 95.9375 72.1875 C 95.207031 72.988281 100.078125 78.5625 94.933594 79.164062 C 91.617188 79.542969 91.140625 75.953125 83.886719 75.953125 C 83.058594 79.117188 90.640625 81.675781 82.53125 81.925781 C 79.792969 82.003906 81.023438 78.335938 76.402344 83.808594 C 71.910156 89.183594 66.714844 79.066406 64.429688 85.367188 C 61.191406 94.230469 61.339844 87.25 58.878906 88.152344 C 55.464844 89.457031 59.105469 92.597656 49.015625 91.792969 C 46.503906 91.59375 46.929688 99.5 42.460938 97.769531 C 40.503906 97.015625 38.417969 99.652344 36.613281 101.207031 C 34.753906 95.9375 33.75 90.261719 33.75 84.363281 C 33.75 82.304688 33.875 80.269531 34.101562 78.285156 C 37.714844 77.15625 38.847656 75.652344 42.863281 73.59375 C 45.648438 72.1875 46.125 74.445312 50.898438 68.394531 C 53.507812 65.105469 60.585938 62.421875 64.679688 62.445312 C 73.113281 62.519531 78.1875 52.679688 80.445312 52.605469 C 83.710938 52.480469 86.773438 50.246094 93.476562 50.246094 C 100.53125 50.246094 107.410156 51.199219 113.558594 47.332031 C 114.363281 46.828125 116.195312 46.628906 118.003906 46.527344 Z M 118.003906 46.527344 " fill-opacity="1" fill-rule="evenodd"/></g><path fill="#fdc570" d="M 57.023438 65.632812 C 53.757812 64.304688 48.210938 64.957031 49.015625 68.972656 C 49.390625 70.878906 53.859375 71.457031 55.617188 69.902344 C 56.46875 69.125 58.078125 66.085938 57.023438 65.632812 Z M 57.023438 65.632812 " fill-opacity="1" fill-rule="evenodd"/><path fill="#fdc570" d="M 71.734375 55.039062 C 70.203125 54.1875 64.878906 56.644531 64.957031 58.703125 C 65.007812 61.214844 64.855469 61.191406 68.042969 61.242188 C 68.820312 61.242188 71.757812 59.609375 71.734375 58.480469 C 71.734375 58 72.011719 55.191406 71.734375 55.039062 Z M 71.734375 55.039062 " fill-opacity="1" fill-rule="evenodd"/><path fill="#fdc570" d="M 98.671875 48.511719 C 95.535156 47.433594 95.484375 50.292969 96.160156 50.519531 C 97.089844 50.820312 100.933594 50.269531 99.199219 48.886719 C 99.023438 48.738281 98.949219 48.585938 98.671875 48.511719 Z M 98.671875 48.511719 " fill-opacity="1" fill-rule="evenodd"/><path fill="#fdc570" d="M 88.503906 49.992188 C 87.476562 50.371094 86.496094 50.292969 85.46875 51.046875 C 84.8125 51.523438 83.257812 52.730469 84.460938 53.53125 C 84.964844 53.859375 86.394531 53.808594 86.921875 53.53125 C 87.925781 52.929688 88.003906 52.429688 89.359375 52.351562 C 90.765625 52.304688 92.09375 51.25 91.039062 50.246094 C 90.4375 49.640625 89.410156 49.667969 88.503906 49.992188 Z M 88.503906 49.992188 " fill-opacity="1" fill-rule="evenodd"/><g clip-path="url(#dbbe844460)"><path fill="#fdc570" d="M 126.039062 55.589844 C 127.871094 58.277344 129.476562 61.140625 130.808594 64.152344 C 126.261719 64.003906 123.929688 63.550781 117.277344 64.679688 C 111.753906 65.609375 112.933594 66.636719 105.675781 66.0625 C 97.96875 65.433594 87.703125 68.671875 81.777344 73.441406 C 75.222656 78.714844 65.835938 73.492188 59.558594 78.890625 C 54.789062 82.957031 42.386719 91.242188 34.878906 95.109375 C 34.429688 92.921875 34.078125 90.6875 33.902344 88.429688 C 40.527344 82.832031 45.425781 81.878906 53.382812 77.808594 C 57.648438 75.625 63.148438 71.15625 67.867188 71.257812 C 78.613281 71.457031 80.921875 61.339844 92.796875 61.339844 C 101.761719 61.339844 95.558594 62.371094 104.421875 58.527344 C 111.351562 55.492188 118.605469 55.367188 126.039062 55.589844 Z M 126.039062 55.589844 " fill-opacity="1" fill-rule="evenodd"/></g><path fill="#dd5426" d="M 134.824219 88.53125 C 134.574219 91.792969 133.996094 94.957031 133.140625 97.996094 C 133.042969 98.371094 132.941406 98.746094 132.816406 99.097656 L 132.816406 99.148438 C 132.691406 99.527344 132.589844 99.878906 132.464844 100.230469 L 132.4375 100.277344 C 132.339844 100.628906 132.214844 100.980469 132.085938 101.332031 L 132.0625 101.433594 C 131.960938 101.636719 131.886719 101.859375 131.8125 102.085938 C 130.808594 102.238281 129.652344 102.339844 128.246094 102.339844 C 123.453125 102.339844 120.890625 101.535156 117.324219 104.921875 C 115.066406 107.058594 108.085938 101.660156 105.125 106.957031 C 98.621094 118.679688 92.722656 109.191406 87.800781 114.515625 C 79.265625 123.726562 66.964844 119.761719 59.960938 119.734375 C 53.105469 119.710938 53.207031 120.890625 51.097656 122.523438 C 49.464844 121.089844 47.933594 119.585938 46.503906 117.953125 C 68.246094 113.234375 61.894531 91.492188 92.472656 101.988281 C 97.34375 103.667969 96.714844 103.644531 101.484375 100.757812 C 109.117188 96.136719 116.847656 89.082031 123.5 91.066406 C 129.101562 91.492188 133.167969 91.667969 134.824219 88.53125 Z M 134.824219 88.53125 " fill-opacity="1" fill-rule="evenodd"/><path fill="#f69220" d="M 134.398438 92.21875 C 134.070312 94.355469 133.59375 96.464844 132.992188 98.496094 C 131.8125 98.019531 130.429688 97.59375 129.828125 97.644531 C 123.023438 98.371094 123.828125 97.542969 117.828125 100.855469 C 113.761719 103.117188 103.441406 104.046875 102.414062 105.5 C 98.019531 111.675781 84.613281 109.519531 84.414062 109.59375 C 79.039062 111.753906 81.75 115.46875 74.121094 115.46875 C 65.484375 115.46875 64.554688 106.632812 68.195312 104.195312 C 75.300781 99.476562 78.460938 109.089844 75.800781 109.695312 C 73.542969 110.222656 72.890625 109.042969 72.414062 107.410156 C 71.15625 103.34375 67.039062 107.785156 70.101562 110.722656 C 72.335938 112.882812 82.304688 113.109375 77.535156 103.695312 C 75.574219 99.828125 83.332031 103.316406 84.539062 104.019531 C 91.515625 108.113281 100.277344 102.210938 103.089844 102.339844 C 109.292969 102.5625 112.503906 95.132812 116.546875 94.957031 C 123.476562 94.65625 123.753906 94.957031 130.78125 93.398438 C 131.660156 93.226562 133.117188 92.699219 134.398438 92.21875 Z M 134.398438 92.21875 " fill-opacity="1" fill-rule="evenodd"/><path fill="#f69220" d="M 84.3125 113.585938 C 83.761719 113.511719 78.011719 114.613281 77.835938 116.699219 C 77.507812 120.5625 84.890625 115.894531 84.3125 113.585938 Z M 84.3125 113.585938 " fill-opacity="1" fill-rule="evenodd"/><path fill="#f89d32" d="M 66.585938 123.199219 C 64.503906 123.199219 62.871094 123.277344 64.203125 125.988281 C 64.753906 127.066406 68.167969 126.566406 70.152344 127.394531 C 72.839844 128.496094 74.320312 126.613281 72.539062 125.660156 C 70.832031 124.730469 69.097656 123.199219 66.585938 123.199219 Z M 66.585938 123.199219 " fill-opacity="1" fill-rule="evenodd"/><path fill="#f89d32" d="M 80.070312 124.003906 C 75.398438 124.003906 75.476562 127.066406 81.125 126.566406 C 82.753906 126.414062 84.539062 124.003906 80.070312 124.003906 Z M 80.070312 124.003906 " fill-opacity="1" fill-rule="evenodd"/><path fill="#f89d32" d="M 92.699219 126.664062 C 92.472656 126.664062 91.820312 126.664062 91.117188 126.640625 C 89.886719 126.589844 89.207031 126.164062 88.957031 127.367188 C 88.230469 130.757812 97.46875 126.589844 92.699219 126.664062 Z M 92.699219 126.664062 " fill-opacity="1" fill-rule="evenodd"/><path fill="#f89d32" d="M 102.414062 123 C 99.125 121.96875 96.941406 127.667969 98.523438 127.667969 C 103.242188 127.667969 99.125 127.089844 103.390625 125.285156 C 105.527344 124.355469 102.765625 123.101562 102.414062 123 Z M 102.414062 123 " fill-opacity="1" fill-rule="evenodd"/><path fill="#f89d32" d="M 112.304688 116.972656 C 111.300781 117.050781 110.246094 117.25 109.519531 118.832031 C 108.640625 120.839844 112.152344 120.664062 113.8125 119.359375 C 115.917969 117.726562 114.238281 116.773438 112.304688 116.972656 Z M 112.304688 116.972656 " fill-opacity="1" fill-rule="evenodd"/><path fill="#f89d32" d="M 122.472656 108.210938 C 119.761719 107.835938 117.402344 107.988281 115.96875 110.574219 C 111.402344 118.855469 121.492188 112.054688 123.125 111.476562 C 126.765625 110.171875 124.605469 108.4375 123.175781 108.386719 C 123.148438 108.386719 122.597656 108.238281 122.472656 108.210938 Z M 122.472656 108.210938 " fill-opacity="1" fill-rule="evenodd"/><path fill="#f89d32" d="M 107.207031 113.8125 C 107.382812 113.734375 109.492188 112.882812 110.925781 112.253906 C 113.410156 111.175781 112.957031 109.59375 110.371094 109.996094 C 103.367188 111.023438 103.84375 114.867188 107.207031 113.8125 Z M 107.207031 113.8125 " fill-opacity="1" fill-rule="evenodd"/></svg>