<svg xmlns="http://www.w3.org/2000/svg" xmlns:xlink="http://www.w3.org/1999/xlink" width="225" zoomAndPan="magnify" viewBox="0 0 168.75 168.75" height="225" preserveAspectRatio="xMidYMid meet" version="1.0"><path fill="#eb1c24" d="M 78.3125 29.894531 C 106.5 26.582031 132.066406 46.746094 135.378906 74.9375 C 138.691406 103.128906 118.53125 128.699219 90.34375 132.011719 C 62.128906 135.324219 36.589844 115.164062 33.277344 86.96875 C 29.964844 58.777344 50.125 33.207031 78.3125 29.894531 Z M 78.3125 29.894531 " fill-opacity="1" fill-rule="evenodd"/><path fill="#f16623" d="M 32.945312 79.652344 C 33.53125 54.902344 51.933594 33.667969 77.011719 30.074219 C 73.1875 44.757812 91.539062 34 84.046875 49.90625 C 80.707031 56.964844 87.15625 62.855469 79.6875 68.132812 C 74.589844 71.597656 70.15625 80.773438 77.777344 82.890625 C 84.863281 85.007812 86.441406 91.53125 81.574219 94.15625 C 76.453125 96.859375 70.84375 93.546875 64.675781 83.605469 C 47.089844 70.832031 46.734375 105.703125 32.945312 79.652344 Z M 32.945312 79.652344 " fill-opacity="1" fill-rule="evenodd"/><path fill="#ba1f23" d="M 131.121094 59.667969 C 133.261719 64.382812 134.742188 69.507812 135.378906 74.9375 C 138.691406 103.128906 118.53125 128.699219 90.34375 132.011719 C 79.890625 133.234375 69.824219 131.246094 61.132812 126.835938 C 54.023438 95.839844 99.621094 142.082031 98.292969 106.777344 C 97.734375 97.371094 107.597656 95.433594 114.683594 99.101562 C 118.988281 101.320312 130.128906 94.234375 117.917969 89.390625 C 104.335938 82.890625 107.722656 76.289062 121.15625 76.746094 C 125.285156 75.34375 125.257812 61.273438 131.121094 59.667969 Z M 131.121094 59.667969 " fill-opacity="1" fill-rule="evenodd"/><path fill="#ba1f23" d="M 63.683594 107.71875 C 57.03125 108.585938 51.5 108.074219 49.816406 102.902344 C 47.855469 96.402344 50.402344 99.152344 53.820312 101.449219 C 59.808594 105.5 72.347656 104.253906 72.78125 106.445312 C 71.863281 109.808594 66.589844 107.234375 63.683594 107.71875 Z M 63.683594 107.71875 " fill-opacity="1" fill-rule="evenodd"/><path fill="#ba1f23" d="M 82.949219 111.238281 C 85.957031 112.5625 90.597656 109.835938 91.105469 111.109375 C 85.679688 118.859375 71.609375 106.164062 82.949219 111.238281 Z M 82.949219 111.238281 " fill-opacity="1" fill-rule="evenodd"/><path fill="#ba1f23" d="M 109.6875 91.097656 C 109.867188 92.320312 107.722656 93.597656 104.972656 93.929688 C 102.21875 94.257812 99.949219 93.496094 99.722656 92.269531 C 98.929688 87.785156 109.433594 89.109375 109.6875 91.097656 Z M 109.6875 91.097656 " fill-opacity="1" fill-rule="evenodd"/><path fill="#ba1f23" d="M 100.792969 83.453125 C 101.226562 88.167969 106.273438 86.96875 105.839844 82.40625 C 105.507812 78.964844 100.460938 80.011719 100.792969 83.453125 Z M 100.792969 83.453125 " fill-opacity="1" fill-rule="evenodd"/><path fill="#ba1f23" d="M 92.253906 69.457031 C 97.425781 79.78125 98.472656 74.121094 95.976562 71.292969 C 89.246094 57.859375 109.050781 61.375 100.917969 46.949219 C 99.058594 45.519531 95.820312 46.640625 97.324219 55.769531 C 93.425781 61.042969 89.859375 64.945312 92.253906 69.457031 Z M 92.253906 69.457031 " fill-opacity="1" fill-rule="evenodd"/><path fill="#f16623" d="M 88.660156 107.847656 C 88.582031 107.03125 87.128906 106.546875 85.472656 106.726562 C 83.792969 106.929688 82.570312 107.746094 82.621094 108.558594 C 82.796875 111.492188 88.789062 109.121094 88.660156 107.847656 Z M 88.660156 107.847656 " fill-opacity="1" fill-rule="evenodd"/><path fill="#f16623" d="M 62.714844 94.921875 C 58.660156 82.535156 42.402344 101.089844 63.199219 102.316406 C 78.441406 103.359375 64.039062 98.414062 62.714844 94.921875 Z M 62.714844 94.921875 " fill-opacity="1" fill-rule="evenodd"/><path fill="#f16623" d="M 86.953125 61.527344 C 87.027344 64.308594 89.476562 62.394531 91.234375 57.601562 C 103.109375 50.898438 85.449219 43.839844 86.953125 61.527344 Z M 86.953125 61.527344 " fill-opacity="1" fill-rule="evenodd"/><path fill="#eb1c24" d="M 71.992188 58.828125 C 69.46875 61.785156 60.699219 64.816406 61.441406 58.929688 C 62.460938 49.878906 70.5625 49.675781 75 53.804688 C 76.195312 55.972656 75.226562 57.65625 71.992188 58.828125 Z M 71.992188 58.828125 " fill-opacity="1" fill-rule="evenodd"/><path fill="#eb1c24" d="M 47.601562 79.578125 C 52.1875 80.75 54.203125 78.582031 53.691406 73.253906 C 56.570312 63.238281 38.960938 73.253906 47.601562 79.578125 Z M 47.601562 79.578125 " fill-opacity="1" fill-rule="evenodd"/><path fill="#ee4723" d="M 39.113281 74.070312 C 38.5 79.984375 34.144531 78.074219 35.925781 72.132812 C 42.171875 52.632812 52.851562 39.121094 70.128906 34.609375 C 74.742188 33.769531 73.367188 37.949219 75 39.632812 C 87.054688 43.378906 79.484375 57.066406 68.523438 46.183594 C 63.734375 41.160156 58.074219 50.03125 56.929688 57.117188 C 55.859375 62.371094 52.621094 64.28125 47.804688 63.796875 C 43.039062 63.949219 40.15625 68.359375 39.113281 74.070312 Z M 39.113281 74.070312 " fill-opacity="1" fill-rule="evenodd"/></svg>