<svg xmlns="http://www.w3.org/2000/svg" xmlns:xlink="http://www.w3.org/1999/xlink" width="225" zoomAndPan="magnify" viewBox="0 0 168.75 168.75" height="225" preserveAspectRatio="xMidYMid meet" version="1.0"><defs><clipPath id="9a7e753ce6"><path d="M 30 29.824219 L 138.574219 29.824219 L 138.574219 138.574219 L 30 138.574219 Z M 30 29.824219 " clip-rule="nonzero"/></clipPath><clipPath id="61a964351b"><path d="M 29.824219 79 L 31 79 L 31 94 L 29.824219 94 Z M 29.824219 79 " clip-rule="nonzero"/></clipPath></defs><g clip-path="url(#9a7e753ce6)"><path fill="#7ca485" d="M 138.59375 84.199219 C 138.59375 54.21875 114.292969 29.914062 84.308594 29.914062 C 54.328125 29.914062 30.027344 54.21875 30.027344 84.199219 C 30.027344 114.179688 54.328125 138.484375 84.308594 138.484375 C 114.292969 138.484375 138.59375 114.179688 138.59375 84.199219 " fill-opacity="1" fill-rule="nonzero"/></g><g clip-path="url(#61a964351b)"><path fill="#ffffff" d="M 30.773438 93.242188 C 30.699219 93.214844 30.621094 93.191406 30.542969 93.164062 C 30.082031 90.316406 29.835938 87.398438 29.835938 84.421875 C 29.835938 82.804688 29.917969 81.210938 30.054688 79.632812 C 30.109375 79.644531 30.160156 79.65625 30.210938 79.667969 C 30.089844 81.160156 30.027344 82.675781 30.027344 84.199219 C 30.027344 87.28125 30.28125 90.300781 30.773438 93.242188 " fill-opacity="1" fill-rule="nonzero"/></g><path fill="#a2bba2" d="M 32.722656 93.863281 C 32.0625 93.660156 31.414062 93.460938 30.773438 93.242188 C 30.28125 90.300781 30.027344 87.28125 30.027344 84.199219 C 30.027344 82.675781 30.089844 81.160156 30.210938 79.667969 C 30.609375 79.757812 31.007812 79.84375 31.40625 79.921875 C 31.378906 80.621094 31.363281 81.328125 31.363281 82.035156 C 31.363281 86.105469 31.832031 90.066406 32.722656 93.863281 " fill-opacity="1" fill-rule="nonzero"/><path fill="#ffffff" d="M 31.042969 73.015625 C 31.78125 69.5625 32.847656 66.226562 34.210938 63.050781 C 34.242188 63.042969 34.277344 63.035156 34.308594 63.027344 C 32.960938 66.203125 31.910156 69.535156 31.183594 72.988281 C 31.136719 73 31.089844 73.007812 31.042969 73.015625 " fill-opacity="1" fill-rule="nonzero"/><path fill="#a2bba2" d="M 31.183594 72.988281 C 31.910156 69.535156 32.960938 66.203125 34.308594 63.027344 C 34.480469 62.992188 34.640625 62.980469 34.800781 62.980469 C 34.863281 62.980469 34.925781 62.980469 34.984375 62.984375 C 33.746094 66.105469 32.804688 69.375 32.195312 72.757812 C 31.859375 72.835938 31.523438 72.914062 31.183594 72.988281 M 126.101562 53.292969 C 122.550781 47.992188 118.050781 43.386719 112.84375 39.71875 C 113.378906 39.609375 113.914062 39.496094 114.453125 39.394531 C 119.5 42.800781 123.9375 47.046875 127.582031 51.914062 C 127.222656 52.425781 126.734375 52.835938 126.101562 53.292969 M 42.71875 49.328125 C 45.789062 45.707031 49.328125 42.496094 53.242188 39.785156 C 49.414062 42.492188 45.976562 45.703125 43.015625 49.328125 C 42.914062 49.328125 42.816406 49.328125 42.71875 49.328125 M 103.957031 34.691406 C 97.574219 31.875 90.515625 30.308594 83.089844 30.308594 C 81.605469 30.308594 80.136719 30.371094 78.683594 30.492188 C 78.789062 30.457031 78.898438 30.417969 79.003906 30.382812 C 80.6875 30.226562 82.390625 30.136719 84.121094 30.136719 C 91.484375 30.136719 98.503906 31.609375 104.90625 34.269531 C 104.597656 34.421875 104.28125 34.5625 103.957031 34.691406 " fill-opacity="1" fill-rule="nonzero"/><path fill="#ffffff" d="M 51.265625 127.273438 C 51.109375 127.269531 50.957031 127.265625 50.800781 127.265625 C 41.945312 120.367188 35.289062 110.792969 32.039062 99.75 C 32.125 99.753906 32.207031 99.761719 32.289062 99.765625 C 35.59375 110.828125 42.332031 120.410156 51.265625 127.273438 " fill-opacity="1" fill-rule="nonzero"/><path fill="#a2bba2" d="M 58.566406 127.589844 C 57.136719 127.410156 55.691406 127.304688 54.222656 127.304688 C 53.242188 127.304688 52.253906 127.289062 51.265625 127.273438 C 42.332031 120.410156 35.59375 110.828125 32.289062 99.765625 C 33.03125 99.820312 33.773438 99.847656 34.515625 99.859375 C 38.890625 111.773438 47.519531 121.628906 58.566406 127.589844 M 120.8125 117.425781 C 124.652344 113.335938 127.832031 108.621094 130.1875 103.449219 C 132.128906 102.226562 134.074219 101.007812 136.019531 100.367188 C 134.710938 104.632812 132.890625 108.679688 130.632812 112.425781 C 127.832031 114.804688 124.472656 116.398438 120.8125 117.425781 " fill-opacity="1" fill-rule="nonzero"/><path fill="#95b398" d="M 134.320312 74.847656 C 134.144531 73.59375 133.925781 72.351562 133.660156 71.128906 C 134.433594 72.222656 134.621094 73.484375 134.320312 74.847656 " fill-opacity="1" fill-rule="nonzero"/><path fill="#ffffff" d="M 137.015625 97.257812 C 137.03125 97.191406 137.046875 97.128906 137.0625 97.0625 C 137.0625 97.121094 137.054688 97.179688 137.046875 97.234375 C 137.035156 97.242188 137.027344 97.25 137.015625 97.257812 " fill-opacity="1" fill-rule="nonzero"/><path fill="#aec3ac" d="M 131.464844 100.390625 C 131.964844 99.074219 132.410156 97.730469 132.804688 96.367188 C 133.710938 96.144531 134.613281 95.992188 135.347656 95.992188 C 136.0625 95.992188 136.628906 96.136719 136.898438 96.496094 C 137.019531 96.652344 137.066406 96.84375 137.0625 97.0625 C 137.046875 97.128906 137.03125 97.191406 137.015625 97.257812 C 135.273438 98.363281 133.421875 99.414062 131.464844 100.390625 " fill-opacity="1" fill-rule="nonzero"/><path fill="#ffffff" d="M 108.59375 132.875 C 108.558594 132.855469 108.527344 132.835938 108.492188 132.8125 C 112.613281 130.761719 116.4375 128.199219 119.878906 125.210938 C 119.894531 125.207031 119.914062 125.207031 119.929688 125.203125 C 116.503906 128.214844 112.699219 130.796875 108.59375 132.875 " fill-opacity="1" fill-rule="nonzero"/><path fill="#a2bba2" d="M 108.492188 132.8125 C 108.320312 132.714844 108.148438 132.613281 108.003906 132.484375 C 107.273438 131.839844 107.730469 131.179688 107.976562 130.535156 C 108.242188 129.851562 108.113281 129.363281 107.5 128.78125 C 107.226562 128.519531 106.914062 128.304688 106.578125 128.132812 C 108.539062 127.132812 110.425781 126.011719 112.230469 124.777344 C 113.703125 125.078125 115.207031 125.269531 116.808594 125.34375 C 117.097656 125.355469 117.378906 125.363281 117.652344 125.363281 C 118.445312 125.363281 119.179688 125.308594 119.878906 125.210938 C 116.4375 128.199219 112.613281 130.761719 108.492188 132.8125 " fill-opacity="1" fill-rule="nonzero"/><path fill="#a2bba2" d="M 128.5 57.25 C 127.828125 56.015625 127.105469 54.820312 126.335938 53.648438 C 127.078125 53.515625 127.8125 53.386719 128.535156 53.230469 C 128.226562 52.789062 127.90625 52.347656 127.582031 51.914062 C 127.585938 51.910156 127.589844 51.90625 127.589844 51.902344 C 128.636719 53.296875 129.613281 54.742188 130.523438 56.238281 C 129.878906 56.632812 129.199219 56.953125 128.5 57.25 " fill-opacity="1" fill-rule="nonzero"/><path fill="#bdcdba" d="M 126.335938 53.648438 C 126.257812 53.53125 126.179688 53.410156 126.101562 53.292969 C 126.734375 52.835938 127.222656 52.425781 127.582031 51.914062 C 127.90625 52.347656 128.226562 52.789062 128.535156 53.230469 C 127.8125 53.386719 127.078125 53.515625 126.335938 53.648438 " fill-opacity="1" fill-rule="nonzero"/><path fill="#709478" d="M 56.445312 61.578125 C 56.957031 63.195312 56 64.273438 55.136719 65.492188 C 54.355469 66.59375 53.542969 68.246094 52.019531 68.421875 C 50.234375 68.625 48.257812 68.292969 47.269531 66.710938 C 46.496094 65.464844 46.765625 63.515625 47.609375 62.347656 C 48.511719 61.097656 50.410156 59.957031 51.992188 59.863281 C 53.128906 59.800781 55.488281 59.960938 56.222656 61.164062 L 56.445312 61.578125 " fill-opacity="1" fill-rule="nonzero"/><path fill="#64846b" d="M 56.511719 61.832031 C 56.472656 62.945312 55.742188 63.8125 55.066406 64.769531 C 54.289062 65.871094 53.46875 67.523438 51.945312 67.695312 C 50.164062 67.902344 48.183594 67.570312 47.203125 65.984375 C 47.011719 65.6875 46.890625 65.34375 46.820312 64.980469 C 46.828125 65.605469 46.964844 66.214844 47.269531 66.710938 C 48.257812 68.292969 50.234375 68.625 52.019531 68.421875 C 53.542969 68.246094 54.355469 66.59375 55.136719 65.492188 C 55.949219 64.335938 56.851562 63.3125 56.511719 61.832031 " fill-opacity="1" fill-rule="nonzero"/><path fill="#709478" d="M 90.089844 89.09375 C 90.605469 90.714844 89.644531 91.789062 88.785156 93.011719 C 88.007812 94.113281 87.191406 95.765625 85.667969 95.9375 C 83.878906 96.144531 81.902344 95.8125 80.921875 94.226562 C 80.140625 92.980469 80.414062 91.035156 81.257812 89.863281 C 82.160156 88.617188 84.058594 87.476562 85.640625 87.382812 C 86.777344 87.316406 89.136719 87.476562 89.871094 88.679688 L 90.089844 89.09375 " fill-opacity="1" fill-rule="nonzero"/><path fill="#64846b" d="M 90.160156 89.351562 C 90.121094 90.464844 89.390625 91.332031 88.714844 92.289062 C 87.9375 93.390625 87.117188 95.042969 85.597656 95.214844 C 83.8125 95.421875 81.832031 95.085938 80.851562 93.503906 C 80.664062 93.203125 80.539062 92.863281 80.46875 92.5 C 80.472656 93.125 80.609375 93.730469 80.921875 94.226562 C 81.902344 95.8125 83.878906 96.144531 85.667969 95.9375 C 87.191406 95.765625 88.007812 94.113281 88.785156 93.011719 C 89.597656 91.855469 90.5 90.832031 90.160156 89.351562 " fill-opacity="1" fill-rule="nonzero"/><path fill="#709478" d="M 122.746094 103.828125 C 123.257812 105.449219 122.296875 106.523438 121.4375 107.742188 C 120.660156 108.84375 119.84375 110.496094 118.320312 110.671875 C 116.53125 110.875 114.558594 110.542969 113.574219 108.960938 C 112.796875 107.714844 113.066406 105.769531 113.910156 104.597656 C 114.8125 103.347656 116.714844 102.207031 118.292969 102.117188 C 119.429688 102.050781 121.789062 102.210938 122.527344 103.414062 L 122.746094 103.828125 " fill-opacity="1" fill-rule="nonzero"/><path fill="#64846b" d="M 122.816406 104.082031 C 122.777344 105.195312 122.042969 106.0625 121.367188 107.019531 C 120.589844 108.121094 119.773438 109.777344 118.25 109.945312 C 116.464844 110.152344 114.484375 109.820312 113.503906 108.238281 C 113.316406 107.9375 113.191406 107.59375 113.117188 107.234375 C 113.125 107.859375 113.261719 108.464844 113.574219 108.960938 C 114.558594 110.542969 116.53125 110.875 118.320312 110.671875 C 119.84375 110.496094 120.660156 108.84375 121.4375 107.742188 C 122.25 106.589844 123.152344 105.5625 122.816406 104.082031 " fill-opacity="1" fill-rule="nonzero"/><path fill="#709478" d="M 103.4375 45.949219 C 101.714844 47.730469 99.667969 47.242188 97.503906 46.984375 C 95.550781 46.75 92.863281 46.847656 91.585938 45.015625 C 90.082031 42.863281 89.140625 40.09375 90.492188 37.734375 C 91.550781 35.875 94.238281 34.871094 96.328125 35.144531 C 98.554688 35.433594 101.335938 37.082031 102.550781 39.046875 C 103.421875 40.460938 104.847656 43.601562 103.816406 45.378906 L 103.4375 45.949219 " fill-opacity="1" fill-rule="nonzero"/><path fill="#64846b" d="M 103.160156 46.21875 C 101.699219 46.9375 100.085938 46.597656 98.382812 46.394531 C 96.433594 46.160156 93.742188 46.257812 92.464844 44.421875 C 90.964844 42.273438 90.023438 39.5 91.371094 37.140625 C 91.625 36.691406 91.980469 36.296875 92.394531 35.953125 C 91.597656 36.398438 90.914062 36.992188 90.492188 37.734375 C 89.140625 40.09375 90.082031 42.863281 91.585938 45.015625 C 92.863281 46.847656 95.550781 46.75 97.503906 46.984375 C 99.550781 47.230469 101.492188 47.679688 103.160156 46.21875 " fill-opacity="1" fill-rule="nonzero"/><path fill="#709478" d="M 58.128906 112.921875 C 56.40625 114.707031 54.359375 114.214844 52.195312 113.960938 C 50.242188 113.722656 47.554688 113.824219 46.277344 111.984375 C 44.773438 109.835938 43.832031 107.066406 45.179688 104.707031 C 46.242188 102.847656 48.929688 101.84375 51.019531 102.117188 C 53.246094 102.40625 56.03125 104.058594 57.242188 106.019531 C 58.113281 107.433594 59.542969 110.574219 58.507812 112.355469 L 58.128906 112.921875 " fill-opacity="1" fill-rule="nonzero"/><path fill="#64846b" d="M 57.847656 113.191406 C 56.390625 113.910156 54.773438 113.574219 53.074219 113.367188 C 51.121094 113.132812 48.433594 113.230469 47.15625 111.394531 C 45.65625 109.246094 44.710938 106.476562 46.0625 104.113281 C 46.316406 103.667969 46.671875 103.269531 47.085938 102.929688 C 46.289062 103.371094 45.601562 103.964844 45.179688 104.707031 C 43.832031 107.066406 44.773438 109.835938 46.277344 111.984375 C 47.554688 113.824219 50.242188 113.722656 52.195312 113.960938 C 54.242188 114.203125 56.183594 114.652344 57.847656 113.191406 " fill-opacity="1" fill-rule="nonzero"/><path fill="#709478" d="M 96.273438 134.597656 C 94.546875 136.378906 92.5 135.890625 90.335938 135.632812 C 88.382812 135.394531 85.695312 135.496094 84.417969 133.660156 C 82.914062 131.507812 81.972656 128.742188 83.320312 126.378906 C 84.386719 124.519531 87.070312 123.519531 89.160156 123.789062 C 91.386719 124.082031 94.171875 125.730469 95.382812 127.695312 C 96.253906 129.109375 97.679688 132.25 96.648438 134.027344 L 96.273438 134.597656 " fill-opacity="1" fill-rule="nonzero"/><path fill="#64846b" d="M 95.988281 134.863281 C 94.535156 135.582031 92.910156 135.246094 91.214844 135.039062 C 89.261719 134.808594 86.574219 134.902344 85.296875 133.070312 C 83.796875 130.917969 82.851562 128.148438 84.203125 125.789062 C 84.457031 125.339844 84.8125 124.945312 85.226562 124.601562 C 84.429688 125.042969 83.746094 125.636719 83.320312 126.378906 C 81.972656 128.742188 82.914062 131.507812 84.417969 133.660156 C 85.695312 135.496094 88.382812 135.394531 90.335938 135.632812 C 92.382812 135.878906 94.324219 136.324219 95.988281 134.863281 " fill-opacity="1" fill-rule="nonzero"/><path fill="#95b398" d="M 96.261719 134.609375 C 96.261719 134.609375 96.261719 134.609375 96.261719 134.605469 C 96.265625 134.601562 96.269531 134.601562 96.273438 134.597656 L 96.648438 134.027344 C 96.902344 133.585938 97.007812 133.066406 97.007812 132.507812 C 97.007812 133.066406 96.902344 133.585938 96.648438 134.027344 L 96.273438 134.597656 L 96.261719 134.609375 " fill-opacity="1" fill-rule="nonzero"/><path fill="#8aa58c" d="M 96.261719 134.605469 C 96.539062 133.871094 96.488281 132.96875 96.277344 132.066406 C 96.507812 132.003906 96.738281 131.941406 96.96875 131.878906 C 96.996094 132.089844 97.007812 132.300781 97.007812 132.507812 C 97.007812 133.066406 96.902344 133.585938 96.648438 134.027344 L 96.273438 134.597656 C 96.269531 134.601562 96.265625 134.601562 96.261719 134.605469 " fill-opacity="1" fill-rule="nonzero"/><path fill="#709478" d="M 131.203125 74.035156 C 129.480469 75.820312 127.4375 75.332031 125.269531 75.074219 C 123.316406 74.835938 120.628906 74.9375 119.351562 73.097656 C 117.847656 70.949219 116.90625 68.179688 118.253906 65.820312 C 119.316406 63.960938 122.003906 62.957031 124.09375 63.230469 C 126.320312 63.519531 129.101562 65.171875 130.3125 67.132812 C 131.1875 68.546875 132.613281 71.6875 131.582031 73.46875 L 131.203125 74.035156 " fill-opacity="1" fill-rule="nonzero"/><path fill="#64846b" d="M 130.921875 74.304688 C 129.464844 75.023438 127.847656 74.6875 126.148438 74.480469 C 124.195312 74.246094 121.507812 74.34375 120.230469 72.507812 C 118.730469 70.359375 117.785156 67.589844 119.136719 65.226562 C 119.390625 64.777344 119.746094 64.382812 120.164062 64.042969 C 119.363281 64.484375 118.679688 65.078125 118.253906 65.820312 C 116.90625 68.179688 117.847656 70.949219 119.351562 73.097656 C 120.628906 74.9375 123.316406 74.835938 125.269531 75.074219 C 127.316406 75.316406 129.257812 75.765625 130.921875 74.304688 " fill-opacity="1" fill-rule="nonzero"/><path fill="#8bad90" d="M 83.089844 133.761719 C 74.214844 133.761719 65.863281 131.527344 58.566406 127.589844 C 64.074219 128.277344 69.328125 130.027344 74.847656 130.78125 C 75.488281 130.867188 77.199219 131.195312 78.648438 131.195312 C 79.667969 131.195312 80.550781 131.035156 80.839844 130.511719 C 82.003906 128.40625 77.8125 128.050781 76.96875 127.492188 C 76.820312 126.722656 76.898438 125.941406 77.199219 125.25 C 77.597656 125.222656 78 125.214844 78.40625 125.214844 C 78.542969 125.214844 78.679688 125.21875 78.820312 125.21875 C 78.957031 125.21875 79.09375 125.21875 79.234375 125.21875 C 79.472656 125.21875 79.714844 125.21875 79.953125 125.210938 C 86.417969 125 91.375 121.4375 97.351562 120.128906 C 104.777344 118.503906 112.929688 119.539062 120.410156 117.535156 C 120.542969 117.5 120.679688 117.464844 120.8125 117.425781 C 118.230469 120.175781 115.351562 122.644531 112.230469 124.777344 C 110.066406 124.332031 107.976562 123.648438 105.753906 122.730469 C 103.777344 121.910156 101.253906 121.183594 98.976562 121.183594 C 98.074219 121.183594 97.210938 121.296875 96.4375 121.5625 C 95.589844 121.855469 94.640625 122.472656 94.101562 123.136719 C 91.988281 125.734375 98.246094 127.488281 100.023438 127.5625 C 100.238281 127.570312 100.449219 127.574219 100.660156 127.574219 C 101.484375 127.574219 102.304688 127.519531 103.125 127.488281 C 103.242188 127.484375 103.359375 127.480469 103.484375 127.480469 C 104.457031 127.480469 105.613281 127.636719 106.578125 128.132812 C 103.539062 129.683594 100.320312 130.945312 96.96875 131.878906 C 96.78125 130.324219 95.957031 128.628906 95.382812 127.695312 C 94.171875 125.730469 91.386719 124.082031 89.160156 123.789062 C 88.929688 123.761719 88.699219 123.746094 88.460938 123.746094 C 88.457031 123.746094 88.457031 123.746094 88.457031 123.746094 C 86.585938 123.746094 84.464844 124.640625 83.453125 126.167969 C 83.453125 126.167969 83.449219 126.167969 83.449219 126.171875 C 83.40625 126.238281 83.363281 126.308594 83.320312 126.378906 C 82.867188 127.175781 82.671875 128.015625 82.671875 128.867188 C 82.671875 130.535156 83.421875 132.234375 84.417969 133.660156 C 84.4375 133.6875 84.457031 133.714844 84.480469 133.742188 C 84.019531 133.753906 83.554688 133.761719 83.089844 133.761719 M 62.847656 117.277344 C 60.332031 117.277344 58.023438 116.714844 56.90625 115.199219 C 56.617188 114.804688 56.398438 114.425781 56.25 114.054688 C 56.90625 113.878906 57.53125 113.539062 58.121094 112.933594 C 58.121094 112.933594 58.117188 112.9375 58.117188 112.9375 L 58.128906 112.921875 L 58.507812 112.355469 C 58.761719 111.914062 58.867188 111.390625 58.871094 110.832031 C 58.871094 110.246094 58.753906 109.621094 58.578125 109.011719 C 63.46875 105.511719 73.414062 103.140625 71.765625 98.949219 C 70.933594 98.894531 70.105469 98.871094 69.285156 98.871094 C 64.898438 98.871094 60.628906 99.546875 56.21875 99.792969 C 54.144531 99.910156 52.058594 99.945312 49.96875 99.945312 C 46.425781 99.945312 42.875 99.84375 39.351562 99.84375 C 38.125 99.84375 36.882812 99.867188 35.636719 99.867188 C 35.261719 99.867188 34.890625 99.867188 34.515625 99.859375 C 33.804688 97.914062 33.203125 95.914062 32.722656 93.863281 C 32.886719 93.914062 33.050781 93.964844 33.214844 94.015625 C 36.210938 94.953125 38.898438 95.902344 42.039062 95.902344 C 42.265625 95.902344 42.492188 95.894531 42.722656 95.886719 C 47.128906 95.691406 51.386719 94.421875 55.761719 94.023438 C 60.191406 93.621094 64.742188 93.898438 69.078125 92.871094 C 70.296875 92.578125 75.210938 92.085938 75.785156 90.773438 C 76.644531 88.824219 73.796875 88.390625 70.828125 88.390625 C 68.449219 88.390625 65.988281 88.667969 65.285156 88.667969 C 59.773438 88.667969 54.261719 88.667969 48.746094 88.667969 C 47.546875 88.667969 44.039062 89.039062 40.921875 89.039062 C 38.25 89.039062 35.867188 88.765625 35.492188 87.75 C 34.617188 85.382812 38.847656 84.875 40.21875 84.699219 C 43.476562 84.285156 46.835938 84.160156 50.222656 84.160156 C 55.601562 84.160156 61.046875 84.480469 66.273438 84.480469 C 74.523438 84.480469 82.789062 84.269531 90.945312 84.015625 C 92.46875 83.96875 93.996094 83.949219 95.523438 83.949219 C 98.578125 83.949219 101.636719 84.015625 104.683594 84.015625 C 105.296875 84.015625 106.792969 84.21875 108.25 84.21875 C 110.035156 84.21875 111.757812 83.910156 111.714844 82.53125 C 111.691406 81.78125 110.699219 81.589844 109.628906 81.589844 C 108.582031 81.589844 107.457031 81.769531 107.0625 81.792969 C 104.703125 81.941406 102.34375 82.152344 99.980469 82.152344 C 91.679688 82.152344 83.386719 82.152344 75.089844 82.152344 C 66.40625 82.152344 57.8125 82.121094 49.171875 81.492188 C 43.363281 81.074219 37.179688 81.0625 31.40625 79.921875 C 31.503906 77.488281 31.769531 75.09375 32.195312 72.757812 C 35.027344 72.085938 37.800781 71.214844 40.855469 71.214844 C 46.261719 71.214844 51.46875 71.914062 56.796875 71.914062 C 56.835938 71.914062 56.871094 71.914062 56.90625 71.914062 C 56.921875 71.914062 56.9375 71.914062 56.953125 71.914062 C 62.757812 71.914062 67.714844 74.007812 73.386719 74.484375 C 74.792969 74.601562 77.855469 75.332031 80.144531 75.332031 C 81.015625 75.332031 81.777344 75.226562 82.292969 74.945312 C 84.332031 73.820312 82.964844 71.8125 81.589844 70.800781 C 77.414062 67.730469 71.496094 68.722656 67.257812 65.902344 C 65.632812 64.8125 63.617188 62.542969 65.292969 60.683594 C 66.347656 59.507812 68.082031 59.300781 69.691406 59.300781 C 70.269531 59.300781 70.832031 59.328125 71.339844 59.347656 C 76.277344 59.527344 80.753906 61.210938 85.917969 61.210938 C 86.007812 61.210938 86.097656 61.207031 86.1875 61.207031 C 88.1875 61.183594 91.414062 60.910156 89.554688 58.589844 C 88.507812 57.285156 85.914062 57.914062 84.796875 56.777344 C 86.410156 56.160156 88.1875 56.042969 89.980469 56.042969 C 91.066406 56.042969 92.15625 56.085938 93.222656 56.085938 C 96.570312 56.085938 99.734375 55.527344 103.042969 55.375 C 110.171875 55.050781 118.121094 55.320312 124.621094 53.976562 C 124.855469 53.925781 125.082031 53.882812 125.3125 53.839844 C 123.277344 55.207031 121.003906 56.425781 118.777344 57.367188 C 115.84375 58.605469 112.84375 59.535156 109.683594 60.175781 C 108.578125 60.402344 102.902344 60.191406 102.351562 61.941406 C 102.210938 61.925781 102.0625 61.917969 101.90625 61.917969 C 101.371094 61.917969 100.746094 62 100 62.097656 C 96.664062 62.527344 93.699219 63.097656 90.472656 63.1875 C 90.472656 63.1875 85.992188 63.796875 86.410156 66.578125 C 86.925781 70.03125 89.417969 70.984375 92.316406 70.984375 C 93.039062 70.984375 93.792969 70.925781 94.542969 70.828125 C 96.75 70.550781 101.679688 70.289062 103.605469 68.9375 C 104.84375 68.070312 105.167969 65.28125 104.363281 63.589844 C 104.179688 63.203125 103.988281 62.898438 103.78125 62.664062 C 106.488281 62.886719 109.308594 62.796875 112.027344 62.847656 C 112.378906 62.855469 112.714844 62.859375 113.046875 62.859375 C 115.148438 62.859375 116.878906 62.679688 118.941406 61.746094 C 120.976562 60.820312 122.898438 59.613281 124.914062 58.699219 C 126.125 58.148438 127.339844 57.738281 128.5 57.25 C 130.847656 61.542969 132.605469 66.203125 133.660156 71.128906 C 133.523438 70.929688 133.367188 70.738281 133.1875 70.550781 C 133.1875 70.550781 132.800781 70.328125 132.4375 70.328125 C 132.175781 70.328125 131.929688 70.441406 131.839844 70.824219 C 131.835938 70.839844 131.832031 70.847656 131.832031 70.863281 C 131.558594 69.441406 130.835938 67.980469 130.3125 67.132812 C 129.101562 65.171875 126.320312 63.519531 124.09375 63.230469 C 123.867188 63.199219 123.632812 63.1875 123.390625 63.1875 C 121.5 63.1875 119.347656 64.097656 118.351562 65.65625 C 118.320312 65.710938 118.285156 65.765625 118.253906 65.820312 C 117.800781 66.617188 117.605469 67.457031 117.605469 68.304688 C 117.605469 69.976562 118.355469 71.671875 119.351562 73.097656 C 120.628906 74.9375 123.316406 74.835938 125.269531 75.074219 C 125.816406 75.136719 126.355469 75.21875 126.882812 75.273438 C 127.246094 75.308594 127.605469 75.332031 127.957031 75.332031 C 128.734375 75.332031 129.484375 75.210938 130.1875 74.824219 C 129.378906 75.984375 128.242188 76.980469 126.585938 77.878906 C 124.007812 79.269531 121.53125 80.007812 118.570312 80.46875 C 116.378906 80.808594 113.578125 81.664062 112.214844 83.296875 C 111.789062 83.804688 111.429688 84.550781 111.339844 85.171875 C 111.195312 86.246094 112.011719 86.59375 113.074219 86.59375 C 114.421875 86.59375 116.164062 86.03125 116.808594 85.675781 C 117.484375 85.304688 118.105469 84.863281 118.746094 84.445312 C 119.445312 83.984375 120.4375 83.519531 121.421875 83.519531 C 121.621094 83.519531 121.820312 83.539062 122.015625 83.582031 C 122.632812 83.710938 122.902344 83.96875 123 84.496094 C 123.089844 84.996094 123.058594 85.582031 123.765625 85.703125 C 123.917969 85.730469 124.074219 85.742188 124.230469 85.742188 C 125.074219 85.742188 125.972656 85.394531 126.71875 85.132812 C 128.273438 84.585938 129.652344 83.667969 130.980469 82.796875 C 131.941406 82.164062 133.921875 81.25 133.734375 79.980469 C 133.636719 79.320312 133.175781 79.117188 132.625 79.117188 C 132.269531 79.117188 131.875 79.203125 131.519531 79.300781 C 131.242188 78.476562 132.703125 77.953125 133.148438 77.425781 C 133.714844 76.761719 134.101562 75.773438 134.296875 74.945312 C 134.304688 74.914062 134.3125 74.878906 134.320312 74.847656 C 134.644531 77.199219 134.8125 79.597656 134.8125 82.035156 C 134.8125 87.007812 134.113281 91.816406 132.804688 96.367188 C 131.300781 96.734375 129.769531 97.292969 128.910156 97.675781 C 126.238281 98.859375 123.363281 100.351562 120.222656 100.855469 C 118.179688 101.179688 116.359375 101.269531 114.265625 101.824219 C 112.953125 102.171875 111.941406 102.757812 110.703125 103.15625 C 109.574219 103.519531 108.191406 103.617188 107.179688 104.15625 C 106.585938 104.476562 106.425781 104.878906 105.699219 105.210938 C 104.707031 105.671875 102.496094 105.96875 101.371094 106.191406 C 99.527344 106.5625 97.839844 107.070312 96.929688 108.128906 C 97.429688 108.140625 97.933594 108.148438 98.441406 108.148438 C 103.132812 108.148438 108.085938 107.660156 113.148438 106.625 C 113.125 106.8125 113.113281 107 113.113281 107.183594 C 113.113281 107.609375 113.175781 108.023438 113.308594 108.402344 C 113.375 108.601562 113.464844 108.789062 113.574219 108.960938 C 113.59375 108.996094 113.617188 109.03125 113.640625 109.0625 C 113.667969 109.105469 113.699219 109.144531 113.726562 109.1875 C 112.289062 109.320312 110.804688 109.382812 109.230469 109.382812 C 107.359375 109.382812 105.3125 109.230469 103.285156 109.230469 C 100.90625 109.230469 98.554688 109.441406 96.535156 110.359375 C 93.660156 111.664062 91.269531 113.925781 88.113281 113.925781 C 87.390625 113.925781 86.628906 113.808594 85.808594 113.535156 C 85.738281 111.46875 90.683594 106.765625 86.007812 106.359375 C 85.90625 106.351562 85.800781 106.347656 85.699219 106.347656 C 83.136719 106.347656 79.398438 108.898438 77.433594 110.195312 C 75.277344 111.621094 73.820312 113.9375 71.582031 115.265625 C 69.816406 116.308594 66.15625 117.277344 62.847656 117.277344 M 131.40625 85.929688 C 129.964844 85.929688 127.027344 86.617188 121.09375 89.191406 C 115.273438 91.71875 108.285156 90.945312 102.183594 92.621094 C 96.328125 94.226562 90.511719 95.191406 84.648438 96.15625 C 83.835938 96.902344 83.222656 98.574219 83.824219 99.835938 C 84.730469 101.726562 87.21875 102.101562 89.636719 102.101562 C 91.25 102.101562 92.832031 101.933594 93.902344 101.933594 C 100.335938 101.933594 106.367188 101.519531 112.585938 100.539062 C 118.785156 99.5625 123.054688 98.46875 127.945312 94.734375 C 130.414062 92.839844 133.34375 90.300781 132.75 86.84375 C 132.75 86.84375 133.070312 85.929688 131.40625 85.929688 M 84.738281 95.992188 C 85.046875 95.992188 85.359375 95.972656 85.667969 95.9375 C 87.191406 95.765625 88.007812 94.113281 88.785156 93.011719 C 89.132812 92.515625 89.496094 92.046875 89.773438 91.554688 C 90.179688 90.832031 90.398438 90.0625 90.09375 89.101562 C 90.09375 89.101562 90.09375 89.105469 90.097656 89.105469 L 90.089844 89.09375 L 89.871094 88.679688 C 89.867188 88.675781 89.863281 88.671875 89.859375 88.667969 C 89.859375 88.660156 89.855469 88.65625 89.851562 88.648438 C 89.847656 88.644531 89.847656 88.644531 89.847656 88.644531 C 89.1875 87.628906 87.351562 87.375 86.140625 87.371094 C 86.125 87.371094 86.109375 87.371094 86.09375 87.371094 C 85.933594 87.371094 85.789062 87.375 85.65625 87.382812 C 85.648438 87.382812 85.644531 87.382812 85.640625 87.382812 C 84.058594 87.476562 82.160156 88.617188 81.257812 89.863281 C 80.757812 90.558594 80.460938 91.519531 80.460938 92.453125 C 80.460938 92.957031 80.546875 93.449219 80.738281 93.886719 C 80.792969 94.003906 80.851562 94.121094 80.921875 94.226562 C 80.949219 94.277344 80.980469 94.324219 81.011719 94.367188 C 81.84375 95.570312 83.285156 95.992188 84.734375 95.992188 C 84.734375 95.992188 84.734375 95.992188 84.738281 95.992188 M 83.171875 76.414062 C 81.402344 76.414062 79.773438 76.59375 78.730469 77.398438 C 83.851562 78.59375 89.457031 79.257812 95.335938 79.257812 C 95.792969 79.257812 96.25 79.253906 96.710938 79.246094 C 105.363281 79.09375 113.414062 77.539062 120.226562 74.972656 C 120.324219 74.695312 120.339844 74.441406 120.234375 74.214844 C 119.886719 73.476562 118.457031 73.238281 116.84375 73.238281 C 115.132812 73.238281 113.210938 73.507812 112.171875 73.730469 C 109.542969 74.296875 106.691406 75.074219 103.769531 75.074219 C 103.519531 75.074219 103.265625 75.070312 103.015625 75.058594 C 101.28125 74.976562 99.734375 74.757812 98.003906 74.757812 C 97.671875 74.757812 97.335938 74.769531 96.988281 74.785156 C 95.628906 74.859375 94.523438 75.222656 93.226562 75.359375 C 92.046875 75.480469 90.671875 75.292969 89.574219 75.617188 C 88.929688 75.804688 88.6875 76.167969 87.910156 76.34375 C 87.457031 76.449219 86.800781 76.476562 86.105469 76.476562 C 85.15625 76.476562 84.132812 76.421875 83.472656 76.414062 C 83.371094 76.414062 83.269531 76.414062 83.171875 76.414062 M 121.542969 107.59375 C 122.34375 106.476562 123.171875 105.464844 122.796875 104.007812 C 125.859375 102.957031 128.757812 101.742188 131.464844 100.390625 C 131.070312 101.425781 130.644531 102.445312 130.1875 103.449219 C 128.5625 104.472656 126.945312 105.496094 125.335938 106.175781 C 124.039062 106.726562 122.785156 107.199219 121.542969 107.59375 M 40.394531 64.914062 C 40.242188 64.914062 40.082031 64.90625 39.921875 64.882812 C 37.671875 64.582031 36.507812 63.097656 34.984375 62.984375 C 36.957031 58.007812 39.679688 53.40625 43.015625 49.328125 C 44.058594 49.320312 45.117188 49.316406 46.179688 49.316406 C 50.421875 49.316406 54.753906 49.414062 58.78125 50.023438 C 59.816406 50.179688 63.152344 51.058594 63.210938 52.585938 C 63.292969 54.523438 58.253906 55.519531 56.949219 55.816406 C 52.753906 56.757812 48.957031 58.421875 45.75 61.21875 C 44.125 62.636719 42.679688 64.914062 40.394531 64.914062 M 77.179688 46.011719 C 73.441406 46.011719 70.007812 45.128906 72.273438 41.480469 C 73.378906 39.703125 76.859375 38.257812 78.789062 37.472656 C 81.6875 36.296875 84.269531 35.839844 87.398438 35.839844 C 87.398438 35.839844 87.40625 35.839844 87.40625 35.839844 C 88.539062 35.839844 89.753906 35.878906 91.007812 35.921875 C 91.457031 35.933594 91.90625 35.949219 92.363281 35.960938 C 91.761719 36.300781 91.230469 36.730469 90.824219 37.242188 C 90.703125 37.398438 90.589844 37.5625 90.492188 37.734375 C 90.449219 37.804688 90.410156 37.875 90.375 37.949219 C 90.003906 38.679688 89.839844 39.449219 89.839844 40.226562 C 89.84375 41.476562 90.261719 42.742188 90.890625 43.898438 C 88.414062 44.402344 85.945312 44.902344 83.496094 45.386719 C 82.355469 45.613281 79.699219 46.011719 77.179688 46.011719 M 103.667969 41.367188 C 103.335938 40.453125 102.898438 39.613281 102.550781 39.046875 C 101.742188 37.738281 100.238281 36.570312 98.664062 35.847656 C 100.535156 35.679688 102.339844 35.332031 103.957031 34.691406 C 107.09375 36.074219 110.070312 37.765625 112.84375 39.71875 C 111.902344 39.910156 110.964844 40.105469 110.027344 40.253906 C 107.910156 40.597656 105.792969 40.972656 103.667969 41.367188 M 53.242188 39.785156 C 60.546875 34.613281 69.257812 31.289062 78.683594 30.492188 C 74.875 31.792969 71.207031 32.480469 67.179688 32.847656 C 62.171875 34.492188 57.484375 36.84375 53.242188 39.785156 " fill-opacity="1" fill-rule="nonzero"/><path fill="#acc2ab" d="M 42.039062 95.902344 C 38.898438 95.902344 36.210938 94.953125 33.214844 94.015625 C 33.050781 93.964844 32.886719 93.914062 32.722656 93.863281 C 31.832031 90.066406 31.363281 86.105469 31.363281 82.035156 C 31.363281 81.328125 31.378906 80.621094 31.40625 79.921875 C 37.179688 81.0625 43.363281 81.074219 49.171875 81.492188 C 57.8125 82.121094 66.40625 82.152344 75.089844 82.152344 C 83.386719 82.152344 91.679688 82.152344 99.980469 82.152344 C 102.34375 82.152344 104.703125 81.941406 107.0625 81.792969 C 107.457031 81.769531 108.582031 81.589844 109.628906 81.589844 C 110.699219 81.589844 111.691406 81.78125 111.714844 82.53125 C 111.757812 83.910156 110.035156 84.21875 108.25 84.21875 C 106.792969 84.21875 105.296875 84.015625 104.683594 84.015625 C 101.636719 84.015625 98.578125 83.949219 95.523438 83.949219 C 93.996094 83.949219 92.46875 83.96875 90.945312 84.015625 C 82.789062 84.269531 74.523438 84.480469 66.273438 84.480469 C 61.046875 84.480469 55.601562 84.160156 50.222656 84.160156 C 46.835938 84.160156 43.476562 84.285156 40.21875 84.699219 C 38.847656 84.875 34.617188 85.382812 35.492188 87.75 C 35.867188 88.765625 38.25 89.039062 40.921875 89.039062 C 44.039062 89.039062 47.546875 88.667969 48.746094 88.667969 C 54.261719 88.667969 59.773438 88.667969 65.285156 88.667969 C 65.988281 88.667969 68.449219 88.390625 70.828125 88.390625 C 73.796875 88.390625 76.644531 88.824219 75.785156 90.773438 C 75.210938 92.085938 70.296875 92.578125 69.078125 92.871094 C 64.742188 93.898438 60.191406 93.621094 55.761719 94.023438 C 51.386719 94.421875 47.128906 95.691406 42.722656 95.886719 C 42.492188 95.894531 42.265625 95.902344 42.039062 95.902344 " fill-opacity="1" fill-rule="nonzero"/><path fill="#acc2ab" d="M 80.144531 75.332031 C 77.855469 75.332031 74.792969 74.601562 73.386719 74.484375 C 67.714844 74.007812 62.757812 71.914062 56.953125 71.914062 C 56.9375 71.914062 56.921875 71.914062 56.90625 71.914062 C 56.871094 71.914062 56.835938 71.914062 56.796875 71.914062 C 51.46875 71.914062 46.261719 71.214844 40.855469 71.214844 C 37.800781 71.214844 35.027344 72.085938 32.195312 72.757812 C 32.804688 69.375 33.746094 66.105469 34.984375 62.984375 C 36.507812 63.097656 37.671875 64.582031 39.921875 64.882812 C 40.082031 64.90625 40.242188 64.914062 40.394531 64.914062 C 42.679688 64.914062 44.125 62.636719 45.75 61.21875 C 48.957031 58.421875 52.753906 56.757812 56.949219 55.816406 C 58.253906 55.519531 63.292969 54.523438 63.210938 52.585938 C 63.152344 51.058594 59.816406 50.179688 58.78125 50.023438 C 54.753906 49.414062 50.421875 49.316406 46.179688 49.316406 C 45.117188 49.316406 44.058594 49.320312 43.015625 49.328125 C 45.976562 45.703125 49.414062 42.492188 53.242188 39.785156 C 57.484375 36.84375 62.171875 34.492188 67.179688 32.847656 C 71.207031 32.480469 74.875 31.792969 78.683594 30.492188 C 80.136719 30.371094 81.605469 30.308594 83.089844 30.308594 C 90.515625 30.308594 97.574219 31.875 103.957031 34.691406 C 102.339844 35.332031 100.535156 35.679688 98.664062 35.847656 C 97.875 35.488281 97.070312 35.242188 96.328125 35.144531 C 96.101562 35.113281 95.867188 35.101562 95.628906 35.101562 C 95.625 35.101562 95.625 35.101562 95.625 35.101562 C 94.535156 35.101562 93.355469 35.40625 92.363281 35.960938 C 91.90625 35.949219 91.457031 35.933594 91.007812 35.921875 C 89.753906 35.878906 88.539062 35.839844 87.40625 35.839844 C 87.40625 35.839844 87.398438 35.839844 87.398438 35.839844 C 84.269531 35.839844 81.6875 36.296875 78.789062 37.472656 C 76.859375 38.257812 73.378906 39.703125 72.273438 41.480469 C 70.007812 45.128906 73.441406 46.011719 77.179688 46.011719 C 79.699219 46.011719 82.355469 45.613281 83.496094 45.386719 C 85.945312 44.902344 88.414062 44.402344 90.890625 43.898438 C 91.101562 44.28125 91.335938 44.65625 91.585938 45.015625 C 92.863281 46.847656 95.550781 46.75 97.503906 46.984375 C 98.269531 47.078125 99.027344 47.199219 99.753906 47.234375 C 99.902344 47.242188 100.046875 47.246094 100.191406 47.246094 C 101.351562 47.246094 102.445312 46.972656 103.433594 45.957031 C 103.429688 45.957031 103.429688 45.960938 103.429688 45.960938 L 103.4375 45.949219 L 103.816406 45.378906 C 104.070312 44.941406 104.175781 44.417969 104.175781 43.859375 C 104.175781 43.058594 103.964844 42.183594 103.667969 41.367188 C 105.792969 40.972656 107.910156 40.597656 110.027344 40.253906 C 110.964844 40.105469 111.902344 39.910156 112.84375 39.71875 C 118.050781 43.386719 122.550781 47.992188 126.101562 53.292969 C 125.996094 53.367188 125.882812 53.445312 125.769531 53.527344 C 125.617188 53.632812 125.464844 53.734375 125.3125 53.839844 C 125.082031 53.882812 124.855469 53.925781 124.621094 53.976562 C 118.121094 55.320312 110.171875 55.050781 103.042969 55.375 C 99.734375 55.527344 96.570312 56.085938 93.222656 56.085938 C 92.15625 56.085938 91.066406 56.042969 89.980469 56.042969 C 88.1875 56.042969 86.410156 56.160156 84.796875 56.777344 C 85.914062 57.914062 88.507812 57.285156 89.554688 58.589844 C 91.414062 60.910156 88.1875 61.183594 86.1875 61.207031 C 86.097656 61.207031 86.007812 61.210938 85.917969 61.210938 C 80.753906 61.210938 76.277344 59.527344 71.339844 59.347656 C 70.832031 59.328125 70.269531 59.300781 69.691406 59.300781 C 68.082031 59.300781 66.347656 59.507812 65.292969 60.683594 C 63.617188 62.542969 65.632812 64.8125 67.257812 65.902344 C 71.496094 68.722656 77.414062 67.730469 81.589844 70.800781 C 82.964844 71.8125 84.332031 73.820312 82.292969 74.945312 C 81.777344 75.226562 81.015625 75.332031 80.144531 75.332031 M 51.089844 68.476562 C 51.398438 68.476562 51.710938 68.453125 52.019531 68.421875 C 53.542969 68.246094 54.355469 66.59375 55.136719 65.492188 C 56 64.273438 56.957031 63.195312 56.445312 61.578125 L 56.222656 61.164062 C 56.222656 61.160156 56.21875 61.15625 56.21875 61.152344 C 56.214844 61.144531 56.210938 61.136719 56.207031 61.132812 C 55.542969 60.109375 53.691406 59.855469 52.480469 59.851562 C 52.46875 59.851562 52.453125 59.851562 52.445312 59.851562 C 52.28125 59.851562 52.125 59.855469 51.992188 59.863281 C 50.410156 59.957031 48.511719 61.097656 47.609375 62.347656 C 47.113281 63.039062 46.8125 64.003906 46.8125 64.933594 C 46.8125 65.574219 46.957031 66.199219 47.269531 66.710938 C 47.28125 66.722656 47.289062 66.738281 47.296875 66.75 C 48.121094 68.03125 49.597656 68.476562 51.085938 68.476562 C 51.089844 68.476562 51.089844 68.476562 51.089844 68.476562 M 85.710938 47.742188 C 84.855469 47.742188 84.191406 48.03125 84.125 48.914062 C 83.917969 51.695312 89.382812 51.921875 91.632812 52.386719 C 92.984375 52.664062 93.824219 53.027344 94.929688 53.71875 C 95.925781 54.34375 96.617188 54.597656 97.484375 54.597656 C 98.058594 54.597656 98.714844 54.488281 99.59375 54.289062 C 103.011719 53.535156 106.070312 53.191406 109.433594 53.101562 C 111.171875 53.050781 119.636719 51.859375 117.15625 49.019531 C 116.222656 47.949219 110.472656 48.21875 108.757812 47.980469 C 108.234375 47.910156 107.71875 47.878906 107.207031 47.878906 C 104.667969 47.878906 102.242188 48.664062 99.527344 49.144531 C 98.789062 49.277344 98.046875 49.339844 97.304688 49.371094 C 96.632812 49.402344 95.949219 49.421875 95.265625 49.421875 C 93.28125 49.421875 91.296875 49.253906 89.542969 48.679688 C 88.84375 48.445312 87.042969 47.742188 85.710938 47.742188 " fill-opacity="1" fill-rule="nonzero"/><path fill="#acc2ab" d="M 78.648438 131.195312 C 77.199219 131.195312 75.488281 130.867188 74.847656 130.78125 C 69.328125 130.027344 64.074219 128.277344 58.566406 127.589844 C 47.519531 121.628906 38.890625 111.773438 34.515625 99.859375 C 34.890625 99.867188 35.261719 99.867188 35.636719 99.867188 C 36.882812 99.867188 38.125 99.84375 39.351562 99.84375 C 42.875 99.84375 46.425781 99.945312 49.96875 99.945312 C 52.058594 99.945312 54.144531 99.910156 56.21875 99.792969 C 60.628906 99.546875 64.898438 98.871094 69.285156 98.871094 C 70.105469 98.871094 70.933594 98.894531 71.765625 98.949219 C 73.414062 103.140625 63.46875 105.511719 58.578125 109.011719 C 58.238281 107.839844 57.671875 106.71875 57.242188 106.019531 C 56.03125 104.058594 53.246094 102.40625 51.019531 102.117188 C 51.015625 102.117188 51.011719 102.117188 51.007812 102.117188 C 51.003906 102.117188 51 102.113281 50.996094 102.113281 C 50.777344 102.085938 50.550781 102.074219 50.320312 102.074219 C 50.320312 102.074219 50.316406 102.074219 50.316406 102.074219 C 48.425781 102.074219 46.273438 102.988281 45.277344 104.546875 C 45.242188 104.597656 45.210938 104.652344 45.179688 104.707031 C 44.726562 105.503906 44.53125 106.34375 44.53125 107.191406 C 44.53125 108.863281 45.28125 110.558594 46.277344 111.984375 C 47.554688 113.824219 50.242188 113.722656 52.195312 113.960938 C 53.0625 114.0625 53.910156 114.203125 54.730469 114.21875 C 54.78125 114.21875 54.832031 114.21875 54.882812 114.21875 C 55.351562 114.21875 55.804688 114.175781 56.25 114.054688 C 56.398438 114.425781 56.617188 114.804688 56.90625 115.199219 C 58.023438 116.714844 60.332031 117.277344 62.847656 117.277344 C 66.15625 117.277344 69.816406 116.308594 71.582031 115.265625 C 73.820312 113.9375 75.277344 111.621094 77.433594 110.195312 C 79.398438 108.898438 83.136719 106.347656 85.699219 106.347656 C 85.800781 106.347656 85.90625 106.351562 86.007812 106.359375 C 90.683594 106.765625 85.738281 111.46875 85.808594 113.535156 C 86.628906 113.808594 87.390625 113.925781 88.113281 113.925781 C 91.269531 113.925781 93.660156 111.664062 96.535156 110.359375 C 98.554688 109.441406 100.90625 109.230469 103.285156 109.230469 C 105.3125 109.230469 107.359375 109.382812 109.230469 109.382812 C 110.804688 109.382812 112.289062 109.320312 113.726562 109.1875 C 114.566406 110.324219 115.972656 110.726562 117.386719 110.726562 C 117.386719 110.726562 117.390625 110.726562 117.390625 110.726562 C 117.703125 110.726562 118.011719 110.707031 118.320312 110.671875 C 119.84375 110.496094 120.660156 108.84375 121.4375 107.742188 C 121.472656 107.695312 121.507812 107.644531 121.542969 107.59375 C 122.785156 107.199219 124.039062 106.726562 125.335938 106.175781 C 126.945312 105.496094 128.5625 104.472656 130.1875 103.449219 C 127.832031 108.621094 124.652344 113.335938 120.8125 117.425781 C 120.679688 117.464844 120.542969 117.5 120.410156 117.535156 C 112.929688 119.539062 104.777344 118.503906 97.351562 120.128906 C 91.375 121.4375 86.417969 125 79.953125 125.210938 C 79.714844 125.21875 79.472656 125.21875 79.234375 125.21875 C 79.09375 125.21875 78.957031 125.21875 78.820312 125.21875 C 78.679688 125.21875 78.542969 125.214844 78.40625 125.214844 C 78 125.214844 77.597656 125.222656 77.199219 125.25 C 76.898438 125.941406 76.820312 126.722656 76.96875 127.492188 C 77.8125 128.050781 82.003906 128.40625 80.839844 130.511719 C 80.550781 131.035156 79.667969 131.195312 78.648438 131.195312 " fill-opacity="1" fill-rule="nonzero"/><path fill="#acc2ab" d="M 92.316406 70.984375 C 89.417969 70.984375 86.925781 70.03125 86.410156 66.578125 C 85.992188 63.796875 90.472656 63.1875 90.472656 63.1875 C 93.699219 63.097656 96.664062 62.527344 100 62.097656 C 100.746094 62 101.371094 61.917969 101.90625 61.917969 C 102.0625 61.917969 102.210938 61.925781 102.351562 61.941406 C 102.296875 62.113281 102.292969 62.304688 102.347656 62.515625 C 102.820312 62.574219 103.300781 62.625 103.78125 62.664062 C 103.988281 62.898438 104.179688 63.203125 104.363281 63.589844 C 105.167969 65.28125 104.84375 68.070312 103.605469 68.9375 C 101.679688 70.289062 96.75 70.550781 94.542969 70.828125 C 93.792969 70.925781 93.039062 70.984375 92.316406 70.984375 " fill-opacity="1" fill-rule="nonzero"/><path fill="#acc2ab" d="M 89.636719 102.101562 C 87.21875 102.101562 84.730469 101.726562 83.824219 99.835938 C 83.222656 98.574219 83.835938 96.902344 84.648438 96.15625 C 90.511719 95.191406 96.328125 94.226562 102.183594 92.621094 C 108.285156 90.945312 115.273438 91.71875 121.09375 89.191406 C 127.027344 86.617188 129.964844 85.929688 131.40625 85.929688 C 133.070312 85.929688 132.75 86.84375 132.75 86.84375 C 133.34375 90.300781 130.414062 92.839844 127.945312 94.734375 C 123.054688 98.46875 118.785156 99.5625 112.585938 100.539062 C 106.367188 101.519531 100.335938 101.933594 93.902344 101.933594 C 92.832031 101.933594 91.25 102.101562 89.636719 102.101562 " fill-opacity="1" fill-rule="nonzero"/><path fill="#bdcdba" d="M 97.484375 54.597656 C 96.617188 54.597656 95.925781 54.34375 94.929688 53.71875 C 93.824219 53.027344 92.984375 52.664062 91.632812 52.386719 C 89.382812 51.921875 83.917969 51.695312 84.125 48.914062 C 84.191406 48.03125 84.855469 47.742188 85.710938 47.742188 C 87.042969 47.742188 88.84375 48.445312 89.542969 48.679688 C 91.296875 49.253906 93.28125 49.421875 95.265625 49.421875 C 95.949219 49.421875 96.632812 49.402344 97.304688 49.371094 C 98.046875 49.339844 98.789062 49.277344 99.527344 49.144531 C 102.242188 48.664062 104.667969 47.878906 107.207031 47.878906 C 107.71875 47.878906 108.234375 47.910156 108.757812 47.980469 C 110.472656 48.21875 116.222656 47.949219 117.15625 49.019531 C 119.636719 51.859375 111.171875 53.050781 109.433594 53.101562 C 106.070312 53.191406 103.011719 53.535156 99.59375 54.289062 C 98.714844 54.488281 98.058594 54.597656 97.484375 54.597656 " fill-opacity="1" fill-rule="nonzero"/><path fill="#a1bba1" d="M 113.074219 86.59375 C 112.011719 86.59375 111.195312 86.246094 111.339844 85.171875 C 111.429688 84.550781 111.789062 83.804688 112.214844 83.296875 C 113.578125 81.664062 116.378906 80.808594 118.570312 80.46875 C 121.53125 80.007812 124.007812 79.269531 126.585938 77.878906 C 128.242188 76.980469 129.378906 75.984375 130.1875 74.824219 C 130.535156 74.632812 130.871094 74.382812 131.195312 74.050781 C 131.195312 74.050781 131.191406 74.050781 131.191406 74.050781 L 131.203125 74.035156 L 131.582031 73.46875 C 131.835938 73.027344 131.941406 72.503906 131.941406 71.945312 C 131.941406 71.59375 131.902344 71.230469 131.832031 70.863281 C 131.832031 70.847656 131.835938 70.839844 131.839844 70.824219 C 131.929688 70.441406 132.175781 70.328125 132.4375 70.328125 C 132.800781 70.328125 133.1875 70.550781 133.1875 70.550781 C 133.367188 70.738281 133.523438 70.929688 133.660156 71.128906 C 133.925781 72.351562 134.144531 73.59375 134.320312 74.847656 C 134.3125 74.878906 134.304688 74.914062 134.296875 74.945312 C 134.101562 75.773438 133.714844 76.761719 133.148438 77.425781 C 132.703125 77.953125 131.242188 78.476562 131.519531 79.300781 C 131.875 79.203125 132.269531 79.117188 132.625 79.117188 C 133.175781 79.117188 133.636719 79.320312 133.734375 79.980469 C 133.921875 81.25 131.941406 82.164062 130.980469 82.796875 C 129.652344 83.667969 128.273438 84.585938 126.71875 85.132812 C 125.972656 85.394531 125.074219 85.742188 124.230469 85.742188 C 124.074219 85.742188 123.917969 85.730469 123.765625 85.703125 C 123.058594 85.582031 123.089844 84.996094 123 84.496094 C 122.902344 83.96875 122.632812 83.710938 122.015625 83.582031 C 121.820312 83.539062 121.621094 83.519531 121.421875 83.519531 C 120.4375 83.519531 119.445312 83.984375 118.746094 84.445312 C 118.105469 84.863281 117.484375 85.304688 116.808594 85.675781 C 116.164062 86.03125 114.421875 86.59375 113.074219 86.59375 " fill-opacity="1" fill-rule="nonzero"/><path fill="#b8cab5" d="M 95.335938 79.257812 C 89.457031 79.257812 83.851562 78.59375 78.730469 77.398438 C 79.773438 76.59375 81.402344 76.414062 83.171875 76.414062 C 83.269531 76.414062 83.371094 76.414062 83.472656 76.414062 C 84.132812 76.421875 85.15625 76.476562 86.105469 76.476562 C 86.800781 76.476562 87.457031 76.449219 87.910156 76.34375 C 88.6875 76.167969 88.929688 75.804688 89.574219 75.617188 C 90.671875 75.292969 92.046875 75.480469 93.226562 75.359375 C 94.523438 75.222656 95.628906 74.859375 96.988281 74.785156 C 97.335938 74.769531 97.671875 74.757812 98.003906 74.757812 C 99.734375 74.757812 101.28125 74.976562 103.015625 75.058594 C 103.265625 75.070312 103.519531 75.074219 103.769531 75.074219 C 106.691406 75.074219 109.542969 74.296875 112.171875 73.730469 C 113.210938 73.507812 115.132812 73.238281 116.84375 73.238281 C 118.457031 73.238281 119.886719 73.476562 120.234375 74.214844 C 120.339844 74.441406 120.324219 74.695312 120.226562 74.972656 C 113.414062 77.539062 105.363281 79.09375 96.710938 79.246094 C 96.25 79.253906 95.792969 79.257812 95.335938 79.257812 " fill-opacity="1" fill-rule="nonzero"/><path fill="#b8cab5" d="M 98.441406 108.148438 C 97.933594 108.148438 97.429688 108.140625 96.929688 108.128906 C 97.839844 107.070312 99.527344 106.5625 101.371094 106.191406 C 102.496094 105.96875 104.707031 105.671875 105.699219 105.210938 C 106.425781 104.878906 106.585938 104.476562 107.179688 104.15625 C 108.191406 103.617188 109.574219 103.519531 110.703125 103.15625 C 111.941406 102.757812 112.953125 102.171875 114.265625 101.824219 C 116.359375 101.269531 118.179688 101.179688 120.222656 100.855469 C 123.363281 100.351562 126.238281 98.859375 128.910156 97.675781 C 129.769531 97.292969 131.300781 96.734375 132.804688 96.367188 C 132.410156 97.730469 131.964844 99.074219 131.464844 100.390625 C 128.757812 101.742188 125.859375 102.957031 122.796875 104.007812 C 122.78125 103.949219 122.765625 103.890625 122.746094 103.832031 C 122.746094 103.832031 122.746094 103.835938 122.75 103.835938 L 122.746094 103.828125 L 122.527344 103.414062 C 122.523438 103.410156 122.519531 103.40625 122.519531 103.402344 C 121.863281 102.359375 119.984375 102.105469 118.765625 102.101562 C 118.761719 102.101562 118.753906 102.101562 118.746094 102.101562 C 118.589844 102.101562 118.445312 102.105469 118.316406 102.113281 C 118.3125 102.113281 118.308594 102.113281 118.304688 102.113281 C 118.300781 102.113281 118.296875 102.113281 118.292969 102.117188 C 116.714844 102.207031 114.8125 103.347656 113.910156 104.597656 C 113.511719 105.152344 113.238281 105.878906 113.148438 106.625 C 108.085938 107.660156 103.132812 108.148438 98.441406 108.148438 " fill-opacity="1" fill-rule="nonzero"/><path fill="#acc2ab" d="M 106.578125 128.132812 C 105.613281 127.636719 104.457031 127.480469 103.484375 127.480469 C 103.359375 127.480469 103.242188 127.484375 103.125 127.488281 C 102.304688 127.519531 101.484375 127.574219 100.660156 127.574219 C 100.449219 127.574219 100.238281 127.570312 100.023438 127.5625 C 98.246094 127.488281 91.988281 125.734375 94.101562 123.136719 C 94.640625 122.472656 95.589844 121.855469 96.4375 121.5625 C 97.210938 121.296875 98.074219 121.183594 98.976562 121.183594 C 101.253906 121.183594 103.777344 121.910156 105.753906 122.730469 C 107.976562 123.648438 110.066406 124.332031 112.230469 124.777344 C 110.425781 126.011719 108.539062 127.132812 106.578125 128.132812 " fill-opacity="1" fill-rule="nonzero"/><path fill="#acc2ab" d="M 113.046875 62.859375 C 112.714844 62.859375 112.378906 62.855469 112.027344 62.847656 C 109.308594 62.796875 106.488281 62.886719 103.78125 62.664062 C 103.378906 62.210938 102.921875 62.003906 102.351562 61.941406 C 102.902344 60.191406 108.578125 60.402344 109.683594 60.175781 C 112.84375 59.535156 115.84375 58.605469 118.777344 57.367188 C 121.003906 56.425781 123.277344 55.207031 125.3125 53.839844 C 125.65625 53.773438 126 53.710938 126.335938 53.648438 C 127.105469 54.820312 127.828125 56.015625 128.5 57.25 C 127.339844 57.738281 126.125 58.148438 124.914062 58.699219 C 122.898438 59.613281 120.976562 60.820312 118.941406 61.746094 C 116.878906 62.679688 115.148438 62.859375 113.046875 62.859375 " fill-opacity="1" fill-rule="nonzero"/><path fill="#c5d3c1" d="M 125.3125 53.839844 C 125.464844 53.734375 125.617188 53.632812 125.769531 53.527344 C 125.882812 53.445312 125.996094 53.367188 126.101562 53.292969 C 126.179688 53.410156 126.257812 53.53125 126.335938 53.648438 C 126 53.710938 125.65625 53.773438 125.3125 53.839844 " fill-opacity="1" fill-rule="nonzero"/><path fill="#c5d3c1" d="M 103.78125 62.664062 C 103.300781 62.625 102.820312 62.574219 102.347656 62.515625 C 102.292969 62.304688 102.296875 62.113281 102.351562 61.941406 C 102.921875 62.003906 103.378906 62.210938 103.78125 62.664062 " fill-opacity="1" fill-rule="nonzero"/><path fill="#7f9e83" d="M 51.089844 68.476562 L 51.089844 68.476562 M 51.085938 68.476562 C 49.597656 68.476562 48.121094 68.03125 47.296875 66.75 C 48.121094 68.03125 49.597656 68.476562 51.085938 68.476562 M 51.019531 67.75 C 49.535156 67.75 48.054688 67.308594 47.234375 66.035156 C 47.109375 64.972656 47.410156 63.796875 47.996094 62.988281 C 48.898438 61.738281 50.796875 60.597656 52.375 60.503906 C 52.511719 60.496094 52.664062 60.492188 52.828125 60.492188 C 53.960938 60.492188 55.6875 60.710938 56.449219 61.585938 L 56.445312 61.578125 L 56.222656 61.164062 C 56.222656 61.160156 56.21875 61.15625 56.21875 61.152344 C 56.21875 61.15625 56.222656 61.160156 56.222656 61.164062 L 56.445312 61.578125 C 56.957031 63.195312 56 64.273438 55.136719 65.492188 C 55.949219 64.335938 56.851562 63.3125 56.511719 61.832031 C 56.472656 62.945312 55.742188 63.8125 55.066406 64.769531 C 54.289062 65.871094 53.46875 67.523438 51.945312 67.695312 C 51.644531 67.730469 51.332031 67.75 51.019531 67.75 M 56.207031 61.132812 C 55.542969 60.109375 53.691406 59.855469 52.480469 59.851562 C 53.691406 59.855469 55.542969 60.109375 56.207031 61.132812 " fill-opacity="1" fill-rule="nonzero"/><path fill="#748f77" d="M 51.089844 68.476562 C 51.089844 68.476562 51.089844 68.476562 51.085938 68.476562 C 49.597656 68.476562 48.121094 68.03125 47.296875 66.75 C 47.359375 66.847656 47.429688 66.941406 47.5 67.03125 C 47.359375 66.722656 47.273438 66.386719 47.234375 66.035156 C 48.054688 67.308594 49.535156 67.75 51.019531 67.75 C 51.332031 67.75 51.644531 67.730469 51.945312 67.695312 C 53.46875 67.523438 54.289062 65.871094 55.066406 64.769531 C 55.742188 63.8125 56.472656 62.945312 56.511719 61.832031 C 56.851562 63.3125 55.949219 64.335938 55.136719 65.492188 C 54.355469 66.59375 53.542969 68.246094 52.019531 68.421875 C 51.710938 68.453125 51.398438 68.476562 51.089844 68.476562 " fill-opacity="1" fill-rule="nonzero"/><path fill="#bdcdba" d="M 47.296875 66.75 C 47.289062 66.738281 47.28125 66.722656 47.269531 66.710938 C 46.957031 66.199219 46.8125 65.574219 46.8125 64.933594 C 46.8125 65.574219 46.957031 66.199219 47.269531 66.710938 C 47.28125 66.722656 47.289062 66.738281 47.296875 66.75 M 56.21875 61.152344 C 56.214844 61.144531 56.210938 61.136719 56.207031 61.132812 C 56.210938 61.136719 56.214844 61.144531 56.21875 61.152344 M 51.992188 59.863281 C 52.125 59.855469 52.28125 59.851562 52.445312 59.851562 C 52.28125 59.851562 52.125 59.855469 51.992188 59.863281 M 52.480469 59.851562 C 52.46875 59.851562 52.453125 59.851562 52.445312 59.851562 C 52.453125 59.851562 52.46875 59.851562 52.480469 59.851562 " fill-opacity="1" fill-rule="nonzero"/><path fill="#97af97" d="M 47.296875 66.75 C 47.289062 66.738281 47.28125 66.722656 47.269531 66.710938 C 47.28125 66.722656 47.289062 66.738281 47.296875 66.75 M 47.269531 66.710938 C 46.957031 66.199219 46.8125 65.574219 46.8125 64.933594 C 46.8125 64.003906 47.113281 63.039062 47.609375 62.347656 C 48.511719 61.097656 50.410156 59.957031 51.992188 59.863281 C 52.125 59.855469 52.28125 59.851562 52.445312 59.851562 C 52.453125 59.851562 52.46875 59.851562 52.480469 59.851562 C 53.691406 59.855469 55.542969 60.109375 56.207031 61.132812 C 56.210938 61.136719 56.214844 61.144531 56.21875 61.152344 C 56.21875 61.15625 56.222656 61.160156 56.222656 61.164062 L 56.445312 61.578125 L 56.449219 61.585938 C 55.6875 60.710938 53.960938 60.492188 52.828125 60.492188 C 52.664062 60.492188 52.511719 60.496094 52.375 60.503906 C 50.796875 60.597656 48.898438 61.738281 47.996094 62.988281 C 47.410156 63.796875 47.109375 64.972656 47.234375 66.035156 C 47.222656 66.019531 47.210938 66.003906 47.203125 65.984375 C 47.011719 65.6875 46.890625 65.34375 46.820312 64.980469 C 46.828125 65.605469 46.964844 66.214844 47.269531 66.710938 " fill-opacity="1" fill-rule="nonzero"/><path fill="#8ba18b" d="M 47.5 67.03125 C 47.429688 66.941406 47.359375 66.847656 47.296875 66.75 C 47.289062 66.738281 47.28125 66.722656 47.269531 66.710938 C 46.964844 66.214844 46.828125 65.605469 46.820312 64.980469 C 46.890625 65.34375 47.011719 65.6875 47.203125 65.984375 C 47.210938 66.003906 47.222656 66.019531 47.234375 66.035156 C 47.273438 66.386719 47.359375 66.722656 47.5 67.03125 " fill-opacity="1" fill-rule="nonzero"/><path fill="#7f9e83" d="M 84.734375 95.992188 C 83.285156 95.992188 81.84375 95.570312 81.011719 94.367188 C 81.84375 95.570312 83.285156 95.992188 84.734375 95.992188 M 84.667969 95.269531 C 83.183594 95.269531 81.703125 94.828125 80.878906 93.550781 C 80.757812 92.492188 81.0625 91.316406 81.644531 90.507812 C 82.542969 89.257812 84.445312 88.117188 86.023438 88.023438 C 86.160156 88.015625 86.3125 88.011719 86.476562 88.011719 C 87.609375 88.011719 89.328125 88.226562 90.09375 89.101562 C 90.398438 90.0625 90.179688 90.832031 89.773438 91.554688 C 90.144531 90.894531 90.355469 90.199219 90.160156 89.351562 C 90.121094 90.464844 89.390625 91.332031 88.714844 92.289062 C 87.9375 93.390625 87.117188 95.042969 85.597656 95.214844 C 85.292969 95.25 84.980469 95.269531 84.667969 95.269531 M 80.460938 92.453125 C 80.460938 91.519531 80.757812 90.558594 81.257812 89.863281 C 82.160156 88.617188 84.058594 87.476562 85.640625 87.382812 C 85.644531 87.382812 85.648438 87.382812 85.65625 87.382812 C 85.648438 87.382812 85.644531 87.382812 85.640625 87.382812 C 84.058594 87.476562 82.160156 88.617188 81.257812 89.863281 C 80.757812 90.558594 80.460938 91.519531 80.460938 92.453125 M 89.859375 88.667969 C 89.859375 88.660156 89.855469 88.65625 89.851562 88.648438 C 89.855469 88.65625 89.859375 88.660156 89.859375 88.667969 M 89.851562 88.648438 L 89.851562 88.648438 M 89.847656 88.644531 C 89.1875 87.628906 87.351562 87.375 86.140625 87.371094 C 87.351562 87.375 89.1875 87.628906 89.847656 88.644531 " fill-opacity="1" fill-rule="nonzero"/><path fill="#748f77" d="M 84.738281 95.992188 C 84.734375 95.992188 84.734375 95.992188 84.734375 95.992188 C 83.285156 95.992188 81.84375 95.570312 81.011719 94.367188 C 81.054688 94.429688 81.101562 94.488281 81.148438 94.546875 C 81.007812 94.242188 80.921875 93.902344 80.878906 93.550781 C 81.703125 94.828125 83.183594 95.269531 84.667969 95.269531 C 84.980469 95.269531 85.292969 95.25 85.597656 95.214844 C 87.117188 95.042969 87.9375 93.390625 88.714844 92.289062 C 89.390625 91.332031 90.121094 90.464844 90.160156 89.351562 C 90.355469 90.199219 90.144531 90.894531 89.773438 91.554688 C 89.496094 92.046875 89.132812 92.515625 88.785156 93.011719 C 88.007812 94.113281 87.191406 95.765625 85.667969 95.9375 C 85.359375 95.972656 85.046875 95.992188 84.738281 95.992188 M 80.921875 94.226562 C 80.851562 94.121094 80.792969 94.003906 80.738281 93.886719 C 80.792969 94.003906 80.851562 94.121094 80.921875 94.226562 " fill-opacity="1" fill-rule="nonzero"/><path fill="#a1bba1" d="M 81.011719 94.367188 C 80.980469 94.324219 80.949219 94.277344 80.921875 94.226562 C 80.949219 94.277344 80.980469 94.324219 81.011719 94.367188 M 90.097656 89.105469 C 90.09375 89.105469 90.09375 89.101562 90.09375 89.101562 C 90.09375 89.097656 90.089844 89.097656 90.089844 89.09375 L 90.097656 89.105469 M 89.871094 88.679688 C 89.867188 88.675781 89.863281 88.671875 89.859375 88.667969 C 89.863281 88.671875 89.867188 88.675781 89.871094 88.679688 M 89.851562 88.648438 C 89.847656 88.644531 89.847656 88.644531 89.847656 88.644531 C 89.847656 88.644531 89.847656 88.644531 89.851562 88.648438 M 85.65625 87.382812 C 85.789062 87.375 85.933594 87.371094 86.09375 87.371094 C 85.933594 87.371094 85.789062 87.375 85.65625 87.382812 M 86.140625 87.371094 C 86.125 87.371094 86.109375 87.371094 86.09375 87.371094 C 86.109375 87.371094 86.125 87.371094 86.140625 87.371094 " fill-opacity="1" fill-rule="nonzero"/><path fill="#97af97" d="M 81.011719 94.367188 C 80.980469 94.324219 80.949219 94.277344 80.921875 94.226562 C 80.949219 94.277344 80.980469 94.324219 81.011719 94.367188 M 80.738281 93.886719 C 80.546875 93.449219 80.460938 92.957031 80.460938 92.453125 C 80.460938 91.519531 80.757812 90.558594 81.257812 89.863281 C 82.160156 88.617188 84.058594 87.476562 85.640625 87.382812 C 85.644531 87.382812 85.648438 87.382812 85.65625 87.382812 C 85.789062 87.375 85.933594 87.371094 86.09375 87.371094 C 86.109375 87.371094 86.125 87.371094 86.140625 87.371094 C 87.351562 87.375 89.1875 87.628906 89.847656 88.644531 C 89.847656 88.644531 89.847656 88.644531 89.851562 88.648438 C 89.855469 88.65625 89.859375 88.660156 89.859375 88.667969 C 89.863281 88.671875 89.867188 88.675781 89.871094 88.679688 L 90.089844 89.09375 C 90.089844 89.097656 90.09375 89.097656 90.09375 89.101562 C 89.328125 88.226562 87.609375 88.011719 86.476562 88.011719 C 86.3125 88.011719 86.160156 88.015625 86.023438 88.023438 C 84.445312 88.117188 82.542969 89.257812 81.644531 90.507812 C 81.0625 91.316406 80.757812 92.492188 80.878906 93.550781 C 80.871094 93.535156 80.859375 93.519531 80.851562 93.503906 C 80.664062 93.203125 80.539062 92.863281 80.46875 92.5 C 80.472656 92.988281 80.554688 93.464844 80.738281 93.886719 " fill-opacity="1" fill-rule="nonzero"/><path fill="#8ba18b" d="M 81.148438 94.546875 C 81.101562 94.488281 81.054688 94.429688 81.011719 94.367188 C 80.980469 94.324219 80.949219 94.277344 80.921875 94.226562 C 80.851562 94.121094 80.792969 94.003906 80.738281 93.886719 C 80.554688 93.464844 80.472656 92.988281 80.46875 92.5 C 80.539062 92.863281 80.664062 93.203125 80.851562 93.503906 C 80.859375 93.519531 80.871094 93.535156 80.878906 93.550781 C 80.921875 93.902344 81.007812 94.242188 81.148438 94.546875 " fill-opacity="1" fill-rule="nonzero"/><path fill="#7f9e83" d="M 117.390625 110.726562 L 117.390625 110.726562 M 117.386719 110.726562 C 115.972656 110.726562 114.566406 110.324219 113.726562 109.1875 C 113.699219 109.144531 113.667969 109.105469 113.640625 109.0625 C 114.46875 110.296875 115.925781 110.726562 117.386719 110.726562 M 117.320312 110 C 115.832031 110 114.351562 109.558594 113.53125 108.285156 C 113.410156 107.222656 113.710938 106.046875 114.296875 105.238281 C 115.195312 103.988281 117.097656 102.847656 118.679688 102.757812 C 118.8125 102.75 118.964844 102.746094 119.128906 102.746094 C 120.261719 102.746094 121.984375 102.960938 122.746094 103.832031 C 122.765625 103.890625 122.78125 103.949219 122.796875 104.007812 C 123.171875 105.464844 122.34375 106.476562 121.542969 107.59375 C 121.507812 107.644531 121.472656 107.695312 121.4375 107.742188 C 122.25 106.589844 123.152344 105.5625 122.816406 104.082031 C 122.777344 105.195312 122.042969 106.0625 121.367188 107.019531 C 120.589844 108.121094 119.773438 109.777344 118.25 109.945312 C 117.945312 109.984375 117.632812 110 117.320312 110 M 122.746094 103.828125 L 122.527344 103.414062 C 122.523438 103.410156 122.519531 103.40625 122.519531 103.402344 C 122.519531 103.40625 122.523438 103.410156 122.527344 103.414062 L 122.746094 103.828125 M 122.519531 103.402344 C 121.863281 102.359375 119.984375 102.105469 118.765625 102.101562 C 119.984375 102.105469 121.863281 102.359375 122.519531 103.402344 M 118.304688 102.113281 C 118.308594 102.113281 118.3125 102.113281 118.316406 102.113281 C 118.3125 102.113281 118.308594 102.113281 118.304688 102.113281 " fill-opacity="1" fill-rule="nonzero"/><path fill="#748f77" d="M 117.390625 110.726562 C 117.390625 110.726562 117.386719 110.726562 117.386719 110.726562 C 115.925781 110.726562 114.46875 110.296875 113.640625 109.0625 C 113.691406 109.140625 113.746094 109.210938 113.800781 109.28125 C 113.660156 108.972656 113.574219 108.636719 113.53125 108.285156 C 114.351562 109.558594 115.832031 110 117.320312 110 C 117.632812 110 117.945312 109.984375 118.25 109.945312 C 119.773438 109.777344 120.589844 108.121094 121.367188 107.019531 C 122.042969 106.0625 122.777344 105.195312 122.816406 104.082031 C 123.152344 105.5625 122.25 106.589844 121.4375 107.742188 C 120.660156 108.84375 119.84375 110.496094 118.320312 110.671875 C 118.011719 110.707031 117.703125 110.726562 117.390625 110.726562 M 113.574219 108.960938 C 113.464844 108.789062 113.375 108.601562 113.308594 108.402344 C 113.378906 108.601562 113.464844 108.789062 113.574219 108.960938 " fill-opacity="1" fill-rule="nonzero"/><path fill="#a1bba1" d="M 113.640625 109.0625 C 113.617188 109.03125 113.59375 108.996094 113.574219 108.960938 C 113.59375 108.996094 113.617188 109.03125 113.640625 109.0625 " fill-opacity="1" fill-rule="nonzero"/><path fill="#c6d4c2" d="M 122.75 103.835938 C 122.746094 103.835938 122.746094 103.832031 122.746094 103.832031 C 122.746094 103.832031 122.746094 103.828125 122.746094 103.828125 L 122.75 103.835938 M 118.292969 102.117188 C 118.296875 102.113281 118.300781 102.113281 118.304688 102.113281 C 118.300781 102.113281 118.296875 102.113281 118.292969 102.117188 M 118.316406 102.113281 C 118.445312 102.105469 118.589844 102.101562 118.746094 102.101562 C 118.589844 102.101562 118.445312 102.105469 118.316406 102.113281 M 118.765625 102.101562 C 118.761719 102.101562 118.753906 102.101562 118.746094 102.101562 C 118.753906 102.101562 118.761719 102.101562 118.765625 102.101562 " fill-opacity="1" fill-rule="nonzero"/><path fill="#97af97" d="M 113.640625 109.0625 C 113.617188 109.03125 113.59375 108.996094 113.574219 108.960938 C 113.59375 108.996094 113.617188 109.03125 113.640625 109.0625 M 113.308594 108.402344 C 113.175781 108.023438 113.113281 107.609375 113.113281 107.183594 C 113.113281 106.253906 113.410156 105.289062 113.910156 104.597656 C 114.8125 103.347656 116.714844 102.207031 118.292969 102.117188 C 118.296875 102.113281 118.300781 102.113281 118.304688 102.113281 C 118.308594 102.113281 118.3125 102.113281 118.316406 102.113281 C 118.445312 102.105469 118.589844 102.101562 118.746094 102.101562 C 118.753906 102.101562 118.761719 102.101562 118.765625 102.101562 C 119.984375 102.105469 121.863281 102.359375 122.519531 103.402344 C 122.519531 103.40625 122.523438 103.410156 122.527344 103.414062 L 122.746094 103.828125 C 122.746094 103.828125 122.746094 103.832031 122.746094 103.832031 C 121.984375 102.960938 120.261719 102.746094 119.128906 102.746094 C 118.964844 102.746094 118.8125 102.75 118.679688 102.757812 C 117.097656 102.847656 115.195312 103.988281 114.296875 105.238281 C 113.710938 106.046875 113.410156 107.222656 113.53125 108.285156 C 113.523438 108.269531 113.511719 108.253906 113.503906 108.238281 C 113.316406 107.9375 113.191406 107.59375 113.117188 107.234375 C 113.121094 107.640625 113.183594 108.039062 113.308594 108.402344 " fill-opacity="1" fill-rule="nonzero"/><path fill="#8ba18b" d="M 113.800781 109.28125 C 113.746094 109.210938 113.691406 109.140625 113.640625 109.0625 C 113.617188 109.03125 113.59375 108.996094 113.574219 108.960938 C 113.464844 108.789062 113.378906 108.601562 113.308594 108.402344 C 113.183594 108.039062 113.121094 107.640625 113.117188 107.234375 C 113.191406 107.59375 113.316406 107.9375 113.503906 108.238281 C 113.511719 108.253906 113.523438 108.269531 113.53125 108.285156 C 113.574219 108.636719 113.660156 108.972656 113.800781 109.28125 " fill-opacity="1" fill-rule="nonzero"/><path fill="#7f9e83" d="M 100.191406 47.246094 C 100.046875 47.246094 99.902344 47.242188 99.753906 47.234375 C 99.898438 47.242188 100.042969 47.246094 100.1875 47.246094 C 101.242188 47.246094 102.242188 47.019531 103.160156 46.21875 C 102.488281 46.546875 101.785156 46.65625 101.058594 46.65625 C 100.199219 46.65625 99.304688 46.503906 98.382812 46.394531 C 96.433594 46.160156 93.742188 46.257812 92.464844 44.421875 C 90.980469 42.292969 90.039062 39.558594 91.332031 37.214844 C 92.40625 36.460938 93.796875 36.039062 95.074219 36.039062 C 95.3125 36.039062 95.542969 36.054688 95.769531 36.085938 C 97.996094 36.371094 100.78125 38.023438 101.992188 39.988281 C 102.8125 41.3125 104.109375 44.140625 103.433594 45.957031 C 102.445312 46.972656 101.351562 47.246094 100.191406 47.246094 M 104.175781 43.859375 C 104.179688 42.15625 103.207031 40.113281 102.550781 39.046875 C 101.335938 37.082031 98.554688 35.433594 96.328125 35.144531 C 96.101562 35.113281 95.867188 35.101562 95.628906 35.101562 C 95.867188 35.101562 96.101562 35.113281 96.328125 35.144531 C 97.070312 35.242188 97.875 35.488281 98.664062 35.847656 C 100.238281 36.570312 101.742188 37.738281 102.550781 39.046875 C 102.898438 39.613281 103.335938 40.453125 103.667969 41.367188 C 103.964844 42.183594 104.175781 43.058594 104.175781 43.859375 M 95.625 35.101562 C 95.625 35.101562 95.625 35.101562 95.628906 35.101562 C 95.625 35.101562 95.625 35.101562 95.625 35.101562 " fill-opacity="1" fill-rule="nonzero"/><path fill="#748f77" d="M 100.1875 47.246094 C 100.042969 47.246094 99.898438 47.242188 99.753906 47.234375 C 99.027344 47.199219 98.269531 47.078125 97.503906 46.984375 C 95.550781 46.75 92.863281 46.847656 91.585938 45.015625 C 91.335938 44.65625 91.101562 44.28125 90.890625 43.898438 C 90.261719 42.742188 89.84375 41.476562 89.839844 40.226562 C 89.839844 39.449219 90.003906 38.679688 90.375 37.949219 C 90.324219 38.046875 90.28125 38.148438 90.238281 38.246094 C 90.535156 37.855469 90.910156 37.511719 91.332031 37.214844 C 90.039062 39.558594 90.980469 42.292969 92.464844 44.421875 C 93.742188 46.257812 96.433594 46.160156 98.382812 46.394531 C 99.304688 46.503906 100.199219 46.65625 101.058594 46.65625 C 101.785156 46.65625 102.488281 46.546875 103.160156 46.21875 C 102.242188 47.019531 101.242188 47.246094 100.1875 47.246094 M 90.492188 37.734375 C 90.589844 37.5625 90.703125 37.398438 90.824219 37.242188 C 90.703125 37.398438 90.589844 37.5625 90.492188 37.734375 " fill-opacity="1" fill-rule="nonzero"/><path fill="#bdcdba" d="M 103.429688 45.960938 C 103.429688 45.960938 103.429688 45.957031 103.433594 45.957031 C 103.433594 45.953125 103.4375 45.953125 103.4375 45.949219 L 103.816406 45.378906 C 104.070312 44.941406 104.175781 44.417969 104.175781 43.859375 C 104.175781 44.417969 104.070312 44.941406 103.816406 45.378906 L 103.4375 45.949219 L 103.429688 45.960938 " fill-opacity="1" fill-rule="nonzero"/><path fill="#a1bba1" d="M 90.375 37.949219 C 90.410156 37.875 90.449219 37.804688 90.492188 37.734375 C 90.449219 37.804688 90.414062 37.875 90.375 37.949219 M 90.824219 37.242188 C 91.230469 36.730469 91.761719 36.300781 92.363281 35.960938 C 91.761719 36.300781 91.230469 36.730469 90.828125 37.238281 C 90.828125 37.242188 90.824219 37.242188 90.824219 37.242188 " fill-opacity="1" fill-rule="nonzero"/><path fill="#bdcdba" d="M 92.363281 35.960938 C 93.355469 35.40625 94.535156 35.101562 95.625 35.101562 C 94.535156 35.101562 93.355469 35.40625 92.363281 35.960938 " fill-opacity="1" fill-rule="nonzero"/><path fill="#97af97" d="M 103.433594 45.957031 C 104.109375 44.140625 102.8125 41.3125 101.992188 39.988281 C 100.78125 38.023438 97.996094 36.371094 95.769531 36.085938 C 95.542969 36.054688 95.3125 36.039062 95.074219 36.039062 C 93.796875 36.039062 92.40625 36.460938 91.332031 37.214844 C 91.34375 37.191406 91.355469 37.164062 91.371094 37.140625 C 91.625 36.691406 91.980469 36.296875 92.394531 35.953125 C 91.785156 36.292969 91.238281 36.722656 90.828125 37.238281 C 91.230469 36.730469 91.761719 36.300781 92.363281 35.960938 C 93.355469 35.40625 94.535156 35.101562 95.625 35.101562 C 95.625 35.101562 95.625 35.101562 95.628906 35.101562 C 95.867188 35.101562 96.101562 35.113281 96.328125 35.144531 C 98.554688 35.433594 101.335938 37.082031 102.550781 39.046875 C 103.207031 40.113281 104.179688 42.15625 104.175781 43.859375 C 104.175781 44.417969 104.070312 44.941406 103.816406 45.378906 L 103.4375 45.949219 C 103.4375 45.953125 103.433594 45.953125 103.433594 45.957031 " fill-opacity="1" fill-rule="nonzero"/><path fill="#8ba18b" d="M 90.238281 38.246094 C 90.28125 38.148438 90.324219 38.046875 90.375 37.949219 C 90.414062 37.875 90.449219 37.804688 90.492188 37.734375 C 90.589844 37.5625 90.703125 37.398438 90.824219 37.242188 C 90.824219 37.242188 90.828125 37.242188 90.828125 37.238281 C 91.238281 36.722656 91.785156 36.292969 92.394531 35.953125 C 91.980469 36.296875 91.625 36.691406 91.371094 37.140625 C 91.355469 37.164062 91.34375 37.191406 91.332031 37.214844 C 90.910156 37.511719 90.535156 37.855469 90.238281 38.246094 " fill-opacity="1" fill-rule="nonzero"/><path fill="#7f9e83" d="M 54.882812 114.21875 C 54.832031 114.21875 54.78125 114.21875 54.730469 114.21875 C 54.777344 114.21875 54.828125 114.21875 54.878906 114.21875 C 55.933594 114.21875 56.929688 113.996094 57.847656 113.191406 C 57.179688 113.519531 56.476562 113.628906 55.75 113.628906 C 54.890625 113.628906 53.992188 113.476562 53.074219 113.367188 C 51.121094 113.132812 48.433594 113.230469 47.15625 111.394531 C 45.671875 109.265625 44.730469 106.53125 46.023438 104.1875 C 47.097656 103.433594 48.488281 103.011719 49.761719 103.011719 C 50 103.011719 50.234375 103.027344 50.460938 103.058594 C 52.6875 103.347656 55.476562 104.996094 56.6875 106.960938 C 57.5 108.285156 58.804688 111.117188 58.121094 112.933594 C 57.53125 113.539062 56.90625 113.878906 56.25 114.054688 C 55.804688 114.175781 55.351562 114.21875 54.882812 114.21875 M 51.007812 102.117188 L 51.007812 102.117188 M 50.996094 102.113281 C 50.777344 102.085938 50.550781 102.074219 50.320312 102.074219 C 50.550781 102.074219 50.777344 102.085938 50.996094 102.113281 M 50.316406 102.074219 C 50.316406 102.074219 50.320312 102.074219 50.320312 102.074219 C 50.320312 102.074219 50.316406 102.074219 50.316406 102.074219 " fill-opacity="1" fill-rule="nonzero"/><path fill="#748f77" d="M 54.878906 114.21875 C 54.828125 114.21875 54.777344 114.21875 54.730469 114.21875 C 53.910156 114.203125 53.0625 114.0625 52.195312 113.960938 C 50.242188 113.722656 47.554688 113.824219 46.277344 111.984375 C 45.28125 110.558594 44.53125 108.863281 44.53125 107.191406 C 44.53125 106.34375 44.726562 105.503906 45.179688 104.707031 C 45.210938 104.652344 45.242188 104.597656 45.277344 104.546875 C 45.242188 104.597656 45.210938 104.652344 45.179688 104.707031 C 45.085938 104.875 45.003906 105.046875 44.925781 105.21875 C 45.226562 104.828125 45.601562 104.480469 46.023438 104.1875 C 44.730469 106.53125 45.671875 109.265625 47.15625 111.394531 C 48.433594 113.230469 51.121094 113.132812 53.074219 113.367188 C 53.992188 113.476562 54.890625 113.628906 55.75 113.628906 C 56.476562 113.628906 57.179688 113.519531 57.847656 113.191406 C 56.929688 113.996094 55.933594 114.21875 54.878906 114.21875 " fill-opacity="1" fill-rule="nonzero"/><path fill="#a1bba1" d="M 58.117188 112.9375 C 58.117188 112.9375 58.121094 112.933594 58.121094 112.933594 C 58.121094 112.929688 58.125 112.925781 58.128906 112.921875 L 58.507812 112.355469 C 58.761719 111.914062 58.867188 111.390625 58.871094 110.832031 C 58.867188 111.390625 58.761719 111.914062 58.507812 112.355469 L 58.128906 112.921875 L 58.117188 112.9375 " fill-opacity="1" fill-rule="nonzero"/><path fill="#bdcdba" d="M 45.277344 104.546875 C 46.273438 102.988281 48.425781 102.074219 50.316406 102.074219 C 48.425781 102.074219 46.273438 102.988281 45.277344 104.546875 M 51.019531 102.117188 C 51.015625 102.117188 51.011719 102.117188 51.007812 102.117188 C 51.011719 102.117188 51.015625 102.117188 51.019531 102.117188 M 51.007812 102.117188 C 51.003906 102.117188 51 102.113281 50.996094 102.113281 C 51 102.113281 51.003906 102.117188 51.007812 102.117188 M 50.320312 102.074219 L 50.320312 102.074219 " fill-opacity="1" fill-rule="nonzero"/><path fill="#97af97" d="M 58.121094 112.933594 C 58.804688 111.117188 57.5 108.285156 56.6875 106.960938 C 55.476562 104.996094 52.6875 103.347656 50.460938 103.058594 C 50.234375 103.027344 50 103.011719 49.761719 103.011719 C 48.488281 103.011719 47.097656 103.433594 46.023438 104.1875 C 46.035156 104.164062 46.050781 104.140625 46.0625 104.113281 C 46.316406 103.667969 46.671875 103.269531 47.085938 102.929688 C 46.347656 103.339844 45.703125 103.878906 45.277344 104.546875 C 46.273438 102.988281 48.425781 102.074219 50.316406 102.074219 C 50.316406 102.074219 50.320312 102.074219 50.320312 102.074219 C 50.550781 102.074219 50.777344 102.085938 50.996094 102.113281 C 51 102.113281 51.003906 102.117188 51.007812 102.117188 C 51.011719 102.117188 51.015625 102.117188 51.019531 102.117188 C 53.246094 102.40625 56.03125 104.058594 57.242188 106.019531 C 57.898438 107.085938 58.871094 109.128906 58.871094 110.832031 C 58.867188 111.390625 58.761719 111.914062 58.507812 112.355469 L 58.128906 112.921875 C 58.125 112.925781 58.121094 112.929688 58.121094 112.933594 " fill-opacity="1" fill-rule="nonzero"/><path fill="#8ba18b" d="M 44.925781 105.21875 C 45.003906 105.046875 45.085938 104.875 45.179688 104.707031 C 45.210938 104.652344 45.242188 104.597656 45.277344 104.546875 C 45.703125 103.878906 46.347656 103.339844 47.085938 102.929688 C 46.671875 103.269531 46.316406 103.667969 46.0625 104.113281 C 46.050781 104.140625 46.035156 104.164062 46.023438 104.1875 C 45.601562 104.480469 45.226562 104.828125 44.925781 105.21875 " fill-opacity="1" fill-rule="nonzero"/><path fill="#7f9e83" d="M 85.859375 133.6875 C 85.652344 133.511719 85.464844 133.304688 85.296875 133.070312 C 83.8125 130.941406 82.871094 128.203125 84.160156 125.859375 C 85.238281 125.109375 86.628906 124.6875 87.90625 124.6875 C 88.140625 124.6875 88.375 124.699219 88.601562 124.730469 C 90.832031 125.019531 93.617188 126.667969 94.828125 128.632812 C 95.3125 129.421875 95.96875 130.742188 96.277344 132.066406 C 92.925781 132.945312 89.4375 133.5 85.859375 133.6875 M 96.96875 131.878906 C 96.78125 130.324219 95.957031 128.628906 95.382812 127.695312 C 94.171875 125.730469 91.386719 124.082031 89.160156 123.789062 C 88.933594 123.761719 88.699219 123.746094 88.460938 123.746094 C 88.699219 123.746094 88.929688 123.761719 89.160156 123.789062 C 91.386719 124.082031 94.171875 125.730469 95.382812 127.695312 C 95.957031 128.628906 96.78125 130.324219 96.96875 131.878906 M 88.457031 123.746094 C 88.457031 123.746094 88.457031 123.746094 88.460938 123.746094 C 88.457031 123.746094 88.457031 123.746094 88.457031 123.746094 " fill-opacity="1" fill-rule="nonzero"/><path fill="#748f77" d="M 84.480469 133.742188 C 84.457031 133.714844 84.4375 133.6875 84.417969 133.660156 C 83.421875 132.234375 82.671875 130.535156 82.671875 128.867188 C 82.671875 128.015625 82.867188 127.175781 83.320312 126.378906 C 83.363281 126.308594 83.40625 126.238281 83.449219 126.171875 C 83.40625 126.238281 83.363281 126.308594 83.320312 126.378906 C 83.226562 126.546875 83.140625 126.722656 83.066406 126.894531 C 83.367188 126.5 83.738281 126.15625 84.160156 125.859375 C 82.871094 128.203125 83.8125 130.941406 85.296875 133.070312 C 85.464844 133.304688 85.652344 133.511719 85.859375 133.6875 C 85.398438 133.710938 84.941406 133.730469 84.480469 133.742188 " fill-opacity="1" fill-rule="nonzero"/><path fill="#a1bba1" d="M 83.449219 126.171875 C 83.449219 126.167969 83.453125 126.167969 83.453125 126.167969 C 83.449219 126.167969 83.449219 126.171875 83.449219 126.171875 M 83.453125 126.167969 C 84.464844 124.640625 86.585938 123.746094 88.457031 123.746094 C 86.585938 123.746094 84.464844 124.640625 83.453125 126.167969 " fill-opacity="1" fill-rule="nonzero"/><path fill="#97af97" d="M 96.277344 132.066406 C 95.96875 130.742188 95.3125 129.421875 94.828125 128.632812 C 93.617188 126.667969 90.832031 125.019531 88.601562 124.730469 C 88.375 124.699219 88.140625 124.6875 87.90625 124.6875 C 86.628906 124.6875 85.238281 125.109375 84.160156 125.859375 C 84.175781 125.835938 84.191406 125.8125 84.203125 125.789062 C 84.457031 125.339844 84.8125 124.945312 85.226562 124.601562 C 84.507812 125 83.878906 125.523438 83.453125 126.167969 C 84.464844 124.640625 86.585938 123.746094 88.457031 123.746094 C 88.457031 123.746094 88.457031 123.746094 88.460938 123.746094 C 88.699219 123.746094 88.933594 123.761719 89.160156 123.789062 C 91.386719 124.082031 94.171875 125.730469 95.382812 127.695312 C 95.957031 128.628906 96.78125 130.324219 96.96875 131.878906 C 96.738281 131.941406 96.507812 132.003906 96.277344 132.066406 M 83.449219 126.171875 C 83.449219 126.171875 83.449219 126.167969 83.453125 126.167969 C 83.449219 126.167969 83.449219 126.171875 83.449219 126.171875 " fill-opacity="1" fill-rule="nonzero"/><path fill="#8ba18b" d="M 83.066406 126.894531 C 83.140625 126.722656 83.226562 126.546875 83.320312 126.378906 C 83.363281 126.308594 83.40625 126.238281 83.449219 126.171875 C 83.449219 126.171875 83.449219 126.167969 83.453125 126.167969 C 83.878906 125.523438 84.507812 125 85.226562 124.601562 C 84.8125 124.945312 84.457031 125.339844 84.203125 125.789062 C 84.191406 125.8125 84.175781 125.835938 84.160156 125.859375 C 83.738281 126.15625 83.367188 126.5 83.066406 126.894531 " fill-opacity="1" fill-rule="nonzero"/><path fill="#7f9e83" d="M 127.957031 75.332031 C 127.605469 75.332031 127.246094 75.308594 126.882812 75.273438 C 127.242188 75.308594 127.601562 75.332031 127.953125 75.332031 C 129.007812 75.332031 130.007812 75.109375 130.921875 74.304688 C 130.253906 74.632812 129.550781 74.742188 128.824219 74.742188 C 127.964844 74.742188 127.066406 74.589844 126.148438 74.480469 C 124.195312 74.246094 121.507812 74.34375 120.230469 72.507812 C 118.746094 70.382812 117.804688 67.644531 119.097656 65.300781 C 120.171875 64.546875 121.5625 64.125 122.839844 64.125 C 123.078125 64.125 123.308594 64.140625 123.535156 64.171875 C 125.765625 64.460938 128.546875 66.109375 129.761719 68.074219 C 130.574219 69.398438 131.878906 72.234375 131.195312 74.050781 C 130.871094 74.382812 130.535156 74.632812 130.1875 74.824219 C 129.484375 75.210938 128.734375 75.332031 127.957031 75.332031 M 131.941406 71.945312 C 131.945312 70.242188 130.972656 68.199219 130.3125 67.132812 C 129.101562 65.171875 126.320312 63.519531 124.09375 63.230469 C 123.867188 63.199219 123.632812 63.1875 123.390625 63.1875 C 123.632812 63.1875 123.867188 63.199219 124.09375 63.230469 C 126.320312 63.519531 129.101562 65.171875 130.3125 67.132812 C 130.835938 67.980469 131.558594 69.441406 131.832031 70.863281 C 131.902344 71.230469 131.941406 71.59375 131.941406 71.945312 M 123.390625 63.1875 L 123.390625 63.1875 " fill-opacity="1" fill-rule="nonzero"/><path fill="#748f77" d="M 127.953125 75.332031 C 127.601562 75.332031 127.242188 75.308594 126.882812 75.273438 C 126.355469 75.21875 125.816406 75.136719 125.269531 75.074219 C 123.316406 74.835938 120.628906 74.9375 119.351562 73.097656 C 118.355469 71.671875 117.605469 69.976562 117.605469 68.304688 C 117.605469 67.457031 117.800781 66.617188 118.253906 65.820312 C 118.285156 65.765625 118.320312 65.710938 118.351562 65.65625 C 118.320312 65.710938 118.285156 65.765625 118.253906 65.820312 C 118.160156 65.988281 118.074219 66.160156 118 66.332031 C 118.300781 65.941406 118.675781 65.597656 119.097656 65.300781 C 117.804688 67.644531 118.746094 70.382812 120.230469 72.507812 C 121.507812 74.34375 124.195312 74.246094 126.148438 74.480469 C 127.066406 74.589844 127.964844 74.742188 128.824219 74.742188 C 129.550781 74.742188 130.253906 74.632812 130.921875 74.304688 C 130.007812 75.109375 129.007812 75.332031 127.953125 75.332031 " fill-opacity="1" fill-rule="nonzero"/><path fill="#b3c7b1" d="M 131.191406 74.050781 C 131.191406 74.050781 131.195312 74.050781 131.195312 74.050781 C 131.199219 74.046875 131.199219 74.039062 131.203125 74.035156 L 131.582031 73.46875 C 131.835938 73.027344 131.941406 72.503906 131.941406 71.945312 C 131.941406 72.503906 131.835938 73.027344 131.582031 73.46875 L 131.203125 74.035156 L 131.191406 74.050781 " fill-opacity="1" fill-rule="nonzero"/><path fill="#a1bba1" d="M 118.351562 65.65625 C 119.347656 64.097656 121.5 63.1875 123.390625 63.1875 C 121.5 63.1875 119.351562 64.097656 118.351562 65.65625 " fill-opacity="1" fill-rule="nonzero"/><path fill="#97af97" d="M 131.195312 74.050781 C 131.878906 72.234375 130.574219 69.398438 129.761719 68.074219 C 128.546875 66.109375 125.765625 64.460938 123.535156 64.171875 C 123.308594 64.140625 123.078125 64.125 122.839844 64.125 C 121.5625 64.125 120.171875 64.546875 119.097656 65.300781 C 119.109375 65.277344 119.121094 65.253906 119.136719 65.226562 C 119.390625 64.777344 119.746094 64.382812 120.164062 64.042969 C 119.421875 64.449219 118.78125 64.992188 118.351562 65.65625 C 119.351562 64.097656 121.5 63.1875 123.390625 63.1875 C 123.632812 63.1875 123.867188 63.199219 124.09375 63.230469 C 126.320312 63.519531 129.101562 65.171875 130.3125 67.132812 C 130.972656 68.199219 131.945312 70.242188 131.941406 71.945312 C 131.941406 72.503906 131.835938 73.027344 131.582031 73.46875 L 131.203125 74.035156 C 131.199219 74.039062 131.199219 74.046875 131.195312 74.050781 " fill-opacity="1" fill-rule="nonzero"/><path fill="#8ba18b" d="M 118 66.332031 C 118.074219 66.160156 118.160156 65.988281 118.253906 65.820312 C 118.285156 65.765625 118.320312 65.710938 118.351562 65.65625 C 118.78125 64.992188 119.421875 64.449219 120.164062 64.042969 C 119.746094 64.382812 119.390625 64.777344 119.136719 65.226562 C 119.121094 65.253906 119.109375 65.277344 119.097656 65.300781 C 118.675781 65.597656 118.300781 65.941406 118 66.332031 " fill-opacity="1" fill-rule="nonzero"/></svg>