<svg xmlns="http://www.w3.org/2000/svg" xmlns:xlink="http://www.w3.org/1999/xlink" width="225" zoomAndPan="magnify" viewBox="0 0 168.75 168.75" height="225" preserveAspectRatio="xMidYMid meet" version="1.0"><defs><clipPath id="721ac7f3cb"><path d="M 29.699219 29.699219 L 139.199219 29.699219 L 139.199219 139.199219 L 29.699219 139.199219 Z M 29.699219 29.699219 " clip-rule="nonzero"/></clipPath><clipPath id="cdcc783c6e"><path d="M 29.699219 79 L 138 79 L 138 117 L 29.699219 117 Z M 29.699219 79 " clip-rule="nonzero"/></clipPath><clipPath id="18b4848768"><path d="M 29.699219 88 L 73 88 L 73 104 L 29.699219 104 Z M 29.699219 88 " clip-rule="nonzero"/></clipPath><clipPath id="7ff2d3fb26"><path d="M 98 81 L 139.199219 81 L 139.199219 93 L 98 93 Z M 98 81 " clip-rule="nonzero"/></clipPath><clipPath id="708843d9e2"><path d="M 56 29.699219 L 115 29.699219 L 115 46 L 56 46 Z M 56 29.699219 " clip-rule="nonzero"/></clipPath></defs><g clip-path="url(#721ac7f3cb)"><path fill="#222572" d="M 84.460938 29.699219 C 114.679688 29.699219 139.199219 54.214844 139.199219 84.433594 C 139.199219 114.679688 114.679688 139.199219 84.460938 139.199219 C 54.214844 139.199219 29.699219 114.679688 29.699219 84.433594 C 29.699219 54.214844 54.214844 29.699219 84.460938 29.699219 Z M 84.460938 29.699219 " fill-opacity="1" fill-rule="evenodd"/></g><g clip-path="url(#cdcc783c6e)"><path fill="#0050a1" d="M 137.949219 96.136719 C 136.917969 100.859375 135.289062 105.339844 133.144531 109.523438 C 125.324219 111.613281 112.808594 107.921875 107.351562 111.667969 C 104.011719 113.976562 92.390625 118.375 83.945312 114.871094 C 80.089844 113.269531 61.898438 115.0625 56.742188 112.863281 C 48.839844 109.496094 45.527344 104.527344 36.949219 104.527344 L 33.5 104.527344 C 31.054688 98.308594 29.699219 91.546875 29.699219 84.433594 C 29.699219 82.804688 29.78125 81.175781 29.914062 79.546875 C 31.789062 80.90625 34.476562 83.675781 40.234375 83.675781 C 48.8125 83.675781 47.429688 85.003906 53.835938 88.914062 C 61.085938 93.339844 72.867188 91.765625 81.449219 91.765625 C 88.617188 91.765625 98.335938 91.957031 104.472656 95.648438 C 107.785156 97.628906 131.269531 97.332031 137.949219 96.136719 Z M 137.949219 96.136719 " fill-opacity="1" fill-rule="evenodd"/></g><path fill="#0067b2" d="M 135.996094 102.980469 C 135.179688 105.234375 134.230469 107.40625 133.144531 109.523438 C 125.324219 111.613281 112.808594 107.921875 107.351562 111.667969 C 104.011719 113.976562 92.390625 118.375 83.945312 114.871094 C 80.089844 113.269531 61.898438 115.0625 56.742188 112.863281 C 50.441406 110.175781 47.046875 106.480469 41.589844 105.097656 L 41.589844 105.070312 C 54.214844 109.683594 65.265625 114.652344 78.40625 112.320312 C 85.875 110.988281 87.882812 113.378906 95.730469 112.78125 C 103.058594 112.238281 113.703125 106.886719 123.941406 106.726562 C 128.773438 106.617188 131.460938 104.851562 135.996094 102.980469 Z M 135.996094 102.980469 " fill-opacity="1" fill-rule="evenodd"/><g clip-path="url(#18b4848768)"><path fill="#222572" d="M 31.679688 99.152344 C 30.757812 95.8125 30.132812 92.335938 29.859375 88.777344 C 44.660156 93.257812 46.097656 88.480469 61.195312 97.847656 C 68.6875 102.488281 68.523438 95.703125 71.835938 97.46875 C 75.964844 99.695312 62.929688 105.722656 56.605469 102.4375 C 49.816406 98.90625 39.746094 97.113281 31.679688 99.152344 Z M 31.679688 99.152344 " fill-opacity="1" fill-rule="evenodd"/></g><g clip-path="url(#7ff2d3fb26)"><path fill="#0067b2" d="M 139.117188 81.421875 C 139.171875 82.425781 139.199219 83.429688 139.199219 84.433594 C 139.199219 86.660156 139.0625 88.832031 138.816406 90.976562 C 134.175781 92.605469 125.839844 93.558594 121.550781 92.335938 C 116.878906 91.003906 113.976562 88.535156 109.007812 88.535156 C 105.179688 88.535156 103.359375 90.570312 100.316406 89.730469 C 93.421875 87.800781 108.980469 81.992188 119.351562 86.660156 C 127.171875 90.191406 127.25 82.074219 139.117188 81.421875 Z M 139.117188 81.421875 " fill-opacity="1" fill-rule="evenodd"/></g><path fill="#0067b2" d="M 121.277344 43.953125 C 128.175781 50.199219 133.441406 58.179688 136.429688 67.222656 C 135.179688 68.441406 133.605469 69.773438 132.519531 69.992188 C 131.242188 70.261719 131.269531 70.832031 127.929688 71.15625 C 117.015625 72.191406 121.957031 71.457031 114.03125 76.152344 C 103.792969 82.234375 98.417969 67.65625 84.871094 77.945312 C 81.039062 80.851562 75.230469 80.171875 70.886719 78.40625 C 56.796875 72.761719 46.695312 78.542969 31.871094 69.121094 C 34.695312 59.457031 40.097656 50.875 47.320312 44.195312 C 52.207031 49.65625 59.15625 50.820312 66.921875 49.953125 C 71.671875 49.410156 74.390625 46.964844 81.910156 46.964844 C 87.882812 46.964844 90.054688 48.132812 95.429688 48.214844 C 98.988281 48.269531 99.152344 44.632812 109.332031 46.042969 C 114.410156 46.75 117.585938 45.5 121.277344 43.953125 Z M 121.277344 43.953125 " fill-opacity="1" fill-rule="evenodd"/><path fill="#0050a1" d="M 132.085938 57.445312 C 133.46875 59.890625 134.664062 62.414062 135.667969 65.050781 C 134.882812 66.027344 133.847656 66.8125 132.710938 67.273438 C 126.492188 69.855469 118.996094 67.085938 112.699219 70.289062 C 109.304688 72 105.855469 76.125 96.136719 72.191406 C 84.273438 67.355469 68.253906 77.78125 52.179688 69.664062 C 48.296875 67.683594 37.570312 64.371094 32.523438 67.03125 C 33.5 64.125 34.695312 61.355469 36.105469 58.695312 C 42.105469 60.433594 42.242188 60.839844 48.105469 64.125 C 56.277344 68.742188 62.035156 66.976562 70.535156 66.433594 C 76.640625 66.027344 80.742188 65.863281 86.550781 67.492188 C 90.136719 68.496094 94.96875 68.199219 98.390625 66.515625 C 106.238281 62.660156 111.234375 69.828125 121.578125 61.601562 C 126.464844 57.71875 128.933594 60.570312 132.085938 57.445312 Z M 132.085938 57.445312 " fill-opacity="1" fill-rule="evenodd"/><path fill="#138fcf" d="M 124.808594 47.457031 C 125.515625 48.1875 126.164062 48.976562 126.816406 49.761719 C 123.613281 51.855469 118.996094 56.796875 107.296875 56.796875 C 98.714844 56.796875 91.359375 56.0625 83.214844 58.371094 C 78.296875 59.753906 75.203125 55.191406 64.371094 58.859375 C 55.273438 61.925781 48.703125 59.511719 41.726562 53.046875 C 41.535156 52.914062 40.964844 52.398438 40.394531 51.960938 C 41.402344 50.578125 42.460938 49.273438 43.574219 48.023438 C 50.359375 49.058594 51.90625 54.8125 63.71875 54.8125 C 72.351562 54.8125 75.582031 50.875 84.597656 51.445312 C 90.789062 51.855469 92.851562 55.816406 100.808594 53.019531 C 110.609375 49.574219 110.933594 51.746094 118.375 50.441406 C 119.269531 50.277344 122.773438 48.621094 124.808594 47.457031 Z M 124.808594 47.457031 " fill-opacity="1" fill-rule="evenodd"/><g clip-path="url(#708843d9e2)"><path fill="#0067b2" d="M 84.460938 29.699219 C 95.402344 29.699219 105.585938 32.902344 114.136719 38.441406 C 109.902344 41.96875 100.699219 42.867188 96.597656 42.378906 C 93.585938 42.023438 92.90625 42.023438 89.757812 42.023438 C 77.050781 42.023438 71.402344 51.445312 56.496094 37.355469 C 64.667969 32.496094 74.226562 29.699219 84.460938 29.699219 Z M 84.460938 29.699219 " fill-opacity="1" fill-rule="evenodd"/></g><path fill="#138fcf" d="M 102.597656 32.765625 C 104.960938 33.609375 107.269531 34.585938 109.46875 35.726562 C 108.898438 36.105469 108.382812 36.433594 108.164062 36.539062 C 104.417969 38.25 101.324219 37.84375 97.167969 38.46875 C 94.183594 38.929688 84.949219 37.707031 83.078125 38.632812 C 71.648438 44.359375 71.078125 42.242188 61.816406 36.484375 C 61.195312 36.105469 60.40625 35.835938 59.644531 35.617188 C 60.460938 35.210938 61.273438 34.828125 62.117188 34.449219 C 64.234375 34.207031 67.382812 35.699219 68.6875 37.464844 C 70.316406 39.71875 74.335938 39.148438 76.152344 37.546875 C 82.722656 31.734375 88.535156 38.578125 95.242188 36.40625 C 98.066406 35.480469 100.859375 33.878906 102.597656 32.765625 Z M 102.597656 32.765625 " fill-opacity="1" fill-rule="evenodd"/><path fill="#0067b2" d="M 76.914062 54.488281 C 79.710938 53.484375 84.570312 53.78125 83.160156 56.578125 C 82.617188 57.636719 78.789062 56.496094 76.667969 55.871094 C 75.039062 55.410156 74.496094 55.355469 76.914062 54.488281 Z M 76.914062 54.488281 " fill-opacity="1" fill-rule="evenodd"/><path fill="#138fcf" d="M 94.726562 59.699219 C 88.96875 57.582031 88.261719 62.199219 89.863281 62.171875 C 90.136719 62.144531 92.796875 62.902344 94.832031 62.875 C 98.011719 62.796875 97.902344 60.894531 94.726562 59.699219 Z M 94.726562 59.699219 " fill-opacity="1" fill-rule="evenodd"/><path fill="#138fcf" d="M 112.671875 104.011719 C 113.894531 103.65625 118.753906 98.253906 118.996094 103.523438 C 119.105469 105.800781 112.101562 106.863281 111.421875 105.9375 C 110.199219 104.253906 112.5625 104.039062 112.671875 104.011719 Z M 112.671875 104.011719 " fill-opacity="1" fill-rule="evenodd"/><path fill="#138fcf" d="M 108.382812 103.277344 C 109.085938 103.277344 111.3125 99.230469 106.238281 100.535156 C 105.828125 100.644531 98.171875 106.019531 101.242188 106.535156 C 105.777344 107.269531 102.597656 103.222656 108.382812 103.277344 Z M 108.382812 103.277344 " fill-opacity="1" fill-rule="evenodd"/><path fill="#138fcf" d="M 85.304688 100.589844 C 85.710938 102.707031 82.234375 102.980469 80.632812 102.027344 C 76.75 99.667969 78.082031 91.492188 89.59375 94.941406 C 93.449219 96.082031 100.210938 92.933594 100.78125 100.046875 C 101.050781 103.222656 99.910156 103.847656 97.875 106.15625 C 95.890625 108.410156 91.46875 109.332031 91.601562 106.128906 C 91.683594 104.335938 88.726562 105.367188 88.480469 104.390625 C 87.613281 100.96875 90.328125 102.382812 93.148438 99.722656 C 95.023438 97.957031 84.082031 94.074219 85.304688 100.589844 Z M 85.304688 100.589844 " fill-opacity="1" fill-rule="evenodd"/><path fill="#138fcf" d="M 58.371094 113.894531 C 54.949219 115.25 57.121094 119.132812 63.664062 119.132812 C 65.59375 119.132812 74.578125 119.976562 71.726562 116.417969 C 69.121094 113.1875 61.925781 112.480469 58.371094 113.894531 Z M 58.371094 113.894531 " fill-opacity="1" fill-rule="evenodd"/><path fill="#0050a1" d="M 77.320312 122.09375 C 76.75 126.246094 85.03125 123.777344 86.660156 123.832031 C 87.3125 123.859375 93.175781 122.417969 88.726562 120.789062 C 86.144531 119.839844 77.945312 117.667969 77.320312 122.09375 Z M 77.320312 122.09375 " fill-opacity="1" fill-rule="evenodd"/><path fill="#0050a1" d="M 45.824219 116.878906 C 44.792969 119.839844 47.890625 120.136719 50.25 121.195312 C 52.476562 122.203125 54 120.4375 51.960938 118.101562 C 51.390625 117.421875 47.320312 112.5625 45.824219 116.878906 Z M 45.824219 116.878906 " fill-opacity="1" fill-rule="evenodd"/></svg>