<svg xmlns="http://www.w3.org/2000/svg" xmlns:xlink="http://www.w3.org/1999/xlink" width="225" zoomAndPan="magnify" viewBox="0 0 168.75 168.75" height="225" preserveAspectRatio="xMidYMid meet" version="1.0"><path fill="#d76727" d="M 69.398438 45.144531 C 49 50.464844 36.746094 71.386719 42.042969 91.851562 C 47.34375 112.320312 68.191406 124.621094 88.585938 119.304688 C 109.007812 113.984375 121.238281 93.0625 115.9375 72.59375 C 110.640625 52.128906 89.792969 39.828125 69.398438 45.144531 Z M 69.398438 45.144531 " fill-opacity="1" fill-rule="evenodd"/><path fill="#ec972d" d="M 109.007812 58.554688 C 106.167969 54.925781 102.726562 51.875 98.859375 49.507812 C 101.597656 59.992188 101.421875 56.386719 98.859375 67.023438 C 95.089844 82.679688 104.710938 68.234375 109.007812 58.554688 Z M 109.007812 58.554688 " fill-opacity="1" fill-rule="evenodd"/><path fill="#ec972d" d="M 84.417969 120.136719 C 85.796875 119.933594 87.203125 119.65625 88.585938 119.304688 C 90.417969 118.824219 92.179688 118.21875 93.859375 117.511719 C 94.664062 114.3125 95.066406 110.429688 101.496094 106.449219 C 108.027344 102.363281 103.730469 95.632812 109.105469 90.644531 C 115.210938 84.945312 113.804688 83.359375 114.632812 75.746094 C 114.808594 74.207031 114.859375 72.269531 115.335938 70.527344 C 114.257812 67.152344 112.773438 64.023438 110.890625 61.175781 C 110.261719 64.503906 108.078125 67.78125 109.609375 75.265625 C 111.519531 84.695312 100.316406 86.964844 100.214844 94.625 C 100.164062 97.652344 98.054688 102.3125 95.167969 103.976562 C 89.039062 107.558594 90.417969 115.671875 84.417969 120.136719 Z M 84.417969 120.136719 " fill-opacity="1" fill-rule="evenodd"/><path fill="#ec972d" d="M 57.390625 113.808594 C 59.375 115.167969 61.484375 116.328125 63.671875 117.3125 C 65.628906 115.523438 68.390625 112.800781 70.375 112.121094 C 76.730469 109.902344 84.441406 107.027344 84.996094 99.3125 C 85.898438 87.089844 87.457031 91.273438 92.003906 81.242188 C 92.355469 80.433594 95.367188 73.476562 94.890625 72.015625 C 94.839844 71.8125 95.769531 63.21875 94.164062 54.824219 C 93.359375 50.617188 94.964844 49.328125 94.1875 47.085938 C 92.078125 46.179688 89.917969 45.449219 87.65625 44.917969 C 88.511719 51.824219 89.289062 54.773438 88.8125 59.335938 C 88.132812 66.042969 83.335938 72.695312 83.789062 79.199219 C 84.039062 82.726562 83.386719 87.644531 77.683594 92.535156 C 69.847656 99.289062 77.007812 103.273438 65.703125 107.027344 C 63.09375 107.882812 60.457031 111.792969 57.390625 113.808594 Z M 57.390625 113.808594 " fill-opacity="1" fill-rule="evenodd"/><path fill="#f3b359" d="M 92.855469 46.53125 C 91.726562 46.101562 90.59375 45.699219 89.441406 45.371094 C 89.691406 48.523438 89.464844 54.699219 89.765625 56.285156 C 90.066406 57.875 89.441406 69.746094 88.835938 70.90625 C 86 76.425781 94.238281 75.117188 91.902344 61.605469 C 90.820312 55.355469 94.238281 53.714844 92.855469 46.53125 Z M 92.855469 46.53125 " fill-opacity="1" fill-rule="evenodd"/><path fill="#ec972d" d="M 50.308594 107.480469 C 51.789062 109.171875 53.398438 110.734375 55.15625 112.144531 C 56.234375 111.515625 57.367188 110.832031 58.042969 110.304688 C 59.5 109.144531 64.925781 106.675781 63.242188 104.785156 C 62.039062 103.398438 65.90625 96.792969 66.886719 94.777344 C 68.769531 91.019531 64.222656 88.828125 62.742188 95.835938 C 61.382812 102.1875 55.683594 105.691406 50.308594 107.480469 Z M 50.308594 107.480469 " fill-opacity="1" fill-rule="evenodd"/><path fill="#ec972d" d="M 69.171875 45.222656 C 66.40625 45.953125 63.820312 46.960938 61.382812 48.21875 C 61.335938 48.296875 61.234375 54.574219 60.957031 55.277344 C 57.492188 64.253906 55.257812 65.035156 57.59375 75.21875 C 58.09375 77.460938 51.289062 80.382812 50.382812 85.351562 C 49.152344 92.179688 49.402344 93.996094 44.40625 98.433594 C 45.535156 100.828125 46.867188 103.09375 48.425781 105.164062 C 51.765625 103.144531 55.933594 97.851562 54.753906 93.367188 C 54.351562 91.804688 52.96875 88.828125 54.074219 86.734375 C 59.222656 76.980469 66.332031 86.003906 61.007812 69.066406 C 57.894531 59.234375 71.882812 63.421875 68.066406 50.539062 C 67.890625 49.933594 68.140625 46.882812 69.171875 45.222656 Z M 69.171875 45.222656 " fill-opacity="1" fill-rule="evenodd"/><path fill="#f3b359" d="M 45.335938 100.273438 C 46.011719 101.582031 46.765625 102.816406 47.59375 104.003906 C 48.199219 103.550781 48.800781 102.996094 48.777344 101.960938 C 48.726562 99.441406 52.140625 98.078125 51.5625 96.894531 C 50.234375 94.148438 49.078125 98.027344 45.335938 100.273438 Z M 45.335938 100.273438 " fill-opacity="1" fill-rule="evenodd"/><path fill="#ec972d" d="M 40.839844 83.484375 C 40.9375 86.207031 41.316406 88.929688 41.996094 91.652344 C 44.003906 89.914062 45.886719 87.039062 46.238281 85.121094 C 46.96875 81.265625 50.632812 77.183594 48.601562 75.167969 C 45.585938 72.21875 43 79.550781 40.839844 83.484375 Z M 40.839844 83.484375 " fill-opacity="1" fill-rule="evenodd"/><path fill="#ec972d" d="M 64.976562 62.839844 C 59.929688 67.226562 65.402344 79.703125 66.132812 70.175781 C 66.332031 67.554688 69.371094 68.863281 68.265625 63.847656 C 68.214844 63.546875 68.140625 63.242188 68.039062 62.917969 C 67.964844 62.613281 67.839844 62.261719 67.738281 61.882812 C 67.464844 61.050781 65.378906 62.488281 64.976562 62.839844 Z M 64.976562 62.839844 " fill-opacity="1" fill-rule="evenodd"/><path fill="#ec972d" d="M 61.785156 82.578125 C 61.03125 82.5 56.5625 84.417969 56.914062 87.164062 C 56.988281 87.617188 56.9375 91.347656 58.296875 89.785156 C 59.351562 88.578125 56.511719 88.753906 61.535156 84.71875 C 61.9375 84.390625 63.066406 82.703125 61.785156 82.578125 Z M 61.785156 82.578125 " fill-opacity="1" fill-rule="evenodd"/><path fill="#ec972d" d="M 83.285156 81.34375 C 83.714844 83.636719 83.3125 84.921875 80.648438 86.914062 C 79.46875 87.792969 77.9375 86.332031 80.296875 84.972656 C 81.753906 84.140625 80.902344 82.804688 81.703125 80.964844 C 82.632812 78.847656 82.886719 79.175781 83.285156 81.34375 Z M 83.285156 81.34375 " fill-opacity="1" fill-rule="evenodd"/><path fill="#f3b359" d="M 66.28125 46.101562 C 65.128906 46.507812 64.023438 46.960938 62.941406 47.464844 C 63.871094 51.296875 64.171875 53.992188 62.265625 57.722656 C 60.78125 60.648438 60.90625 61.226562 63.21875 58.679688 C 68.492188 52.832031 65.679688 50.238281 66.28125 46.101562 Z M 66.28125 46.101562 " fill-opacity="1" fill-rule="evenodd"/><path fill="#f3b359" d="M 60.378906 115.648438 C 60.882812 115.949219 61.410156 116.226562 61.9375 116.480469 C 70.453125 108.3125 83.136719 101.15625 80.246094 97.625 C 76.328125 92.835938 73.039062 105.085938 72.261719 105.515625 C 65.855469 108.894531 65.128906 113.960938 60.378906 115.648438 Z M 60.378906 115.648438 " fill-opacity="1" fill-rule="evenodd"/><path fill="#c0a685" d="M 130.558594 21.804688 C 124.804688 17.367188 109.082031 27.449219 91.046875 45.902344 C 92.929688 46.707031 94.816406 47.488281 96.699219 48.269531 C 106.195312 39.5 113.652344 35.039062 116.390625 37.179688 C 121.289062 41.0625 109.105469 64.757812 89.1875 90.140625 C 69.269531 115.523438 49.175781 132.964844 44.28125 129.109375 C 41.566406 126.964844 43.953125 118.621094 50.308594 107.457031 L 47.21875 103.421875 C 34.859375 124.292969 29.914062 141.054688 35.4375 145.339844 C 43.527344 151.617188 71.382812 129.03125 97.628906 94.929688 C 123.902344 60.824219 138.644531 28.082031 130.558594 21.804688 Z M 130.558594 21.804688 " fill-opacity="1" fill-rule="evenodd"/></svg>