<svg xmlns="http://www.w3.org/2000/svg" xmlns:xlink="http://www.w3.org/1999/xlink" width="225" zoomAndPan="magnify" viewBox="0 0 168.75 168.75" height="225" preserveAspectRatio="xMidYMid meet" version="1.0"><path fill="#00a0b8" d="M 82.886719 33.605469 C 109.996094 33.605469 131.972656 55.546875 131.972656 82.617188 C 131.972656 109.6875 109.996094 131.632812 82.886719 131.632812 C 55.800781 131.632812 33.824219 109.6875 33.824219 82.617188 C 33.824219 55.546875 55.800781 33.605469 82.886719 33.605469 Z M 82.886719 33.605469 " fill-opacity="1" fill-rule="evenodd"/><path fill="#00bbc5" d="M 84.710938 33.652344 C 104.105469 34.359375 120.628906 46.3125 127.957031 63.179688 C 126.082031 90.785156 110.3125 113.503906 81.449219 131.609375 C 60.324219 131 42.535156 117.027344 36.234375 97.878906 C 52.101562 97.804688 58.742188 96.882812 67.359375 80.917969 C 70.546875 75.011719 66.386719 60.285156 76.824219 54.015625 C 72.566406 36.035156 80.230469 48.988281 81.9375 46.460938 Z M 84.710938 33.652344 " fill-opacity="1" fill-rule="evenodd"/><path fill="#8dd4d0" d="M 99.261719 36.398438 C 103.304688 37.832031 107.125 39.777344 110.605469 42.160156 C 108.363281 58.101562 93.933594 59.4375 95.878906 82.789062 C 97.074219 91.414062 73.320312 115.15625 56.238281 123.757812 C 52.734375 121.5 49.570312 118.824219 46.769531 115.789062 C 53.730469 111.074219 64.511719 98.875 72.054688 104.804688 C 78.089844 83.613281 87.191406 92.898438 92.886719 66.75 C 67.699219 102.667969 87.242188 37.082031 95.878906 50.398438 C 103.207031 50.128906 98.121094 41.066406 99.261719 36.398438 Z M 99.261719 36.398438 " fill-opacity="1" fill-rule="evenodd"/><path fill="#00bbc5" d="M 35.136719 93.96875 C 34.382812 90.785156 33.945312 87.480469 33.847656 84.101562 C 48.085938 80.84375 57.574219 64.5625 61.664062 51.660156 C 63.5625 45.730469 56.382812 43.859375 62.832031 37.882812 C 66.386719 36.277344 70.179688 35.113281 74.125 34.382812 C 62.246094 45.925781 63.5625 63.46875 50.421875 78.390625 C 44.359375 85.265625 36.304688 87.066406 35.136719 93.96875 Z M 35.136719 93.96875 " fill-opacity="1" fill-rule="evenodd"/><path fill="#00bbc5" d="M 33.992188 78.367188 C 35.136719 65.21875 41.464844 53.53125 50.929688 45.414062 C 53.339844 61.527344 41.953125 77.46875 40.199219 70.929688 C 39.445312 68.136719 35.917969 75.230469 33.992188 78.367188 Z M 33.992188 78.367188 " fill-opacity="1" fill-rule="evenodd"/><path fill="#1ab4be" d="M 130.269531 95.402344 C 125.207031 114.210938 109.191406 128.523438 89.503906 131.171875 L 86.65625 131.488281 C 118.003906 122.277344 115.375 95.132812 130.269531 95.402344 Z M 130.269531 95.402344 " fill-opacity="1" fill-rule="evenodd"/><path fill="#00bbc5" d="M 62.953125 66.992188 C 54.703125 76.035156 60.203125 77.757812 63.902344 71.003906 C 65.582031 67.941406 68.625 60.75 62.953125 66.992188 Z M 62.953125 66.992188 " fill-opacity="1" fill-rule="evenodd"/><path fill="#00bbc5" d="M 69.816406 55.109375 C 71.570312 55.109375 72.980469 53.457031 72.980469 51.394531 C 72.980469 40.652344 60.886719 55.109375 69.816406 55.109375 Z M 69.816406 55.109375 " fill-opacity="1" fill-rule="evenodd"/><path fill="#8cd2d0" d="M 114.644531 50.273438 C 112.527344 50.882812 111.625 52.851562 114.035156 55.160156 C 114.035156 78.78125 123.84375 47.652344 114.644531 50.273438 Z M 114.644531 50.273438 " fill-opacity="1" fill-rule="evenodd"/><path fill="#8cd2d0" d="M 103.960938 66.871094 C 101.378906 69.640625 103.765625 75.5 107.757812 69.59375 C 111.019531 64.757812 105.589844 65.121094 103.960938 66.871094 Z M 103.960938 66.871094 " fill-opacity="1" fill-rule="evenodd"/><path fill="#8cd2d0" d="M 94.566406 95.863281 C 95.222656 100.066406 105.761719 76.300781 95.296875 90.054688 C 93.519531 92.386719 94.078125 92.605469 94.566406 95.863281 Z M 94.566406 95.863281 " fill-opacity="1" fill-rule="evenodd"/><path fill="#8cd2d0" d="M 118.269531 83.929688 C 113.160156 80.140625 111.554688 96.46875 118.269531 87.261719 C 119.460938 85.632812 120.09375 85.292969 118.269531 83.929688 Z M 118.269531 83.929688 " fill-opacity="1" fill-rule="evenodd"/><path fill="#8cd2d0" d="M 113.207031 93.796875 C 110.09375 94.746094 108.488281 96.640625 106.46875 98.65625 C 103.546875 101.523438 101.234375 105.023438 106.027344 102.277344 C 114.570312 97.417969 116.589844 92.753906 113.207031 93.796875 Z M 113.207031 93.796875 " fill-opacity="1" fill-rule="evenodd"/><path fill="#8cd2d0" d="M 100.796875 112.582031 C 98.824219 109.203125 94.25 114.234375 100.042969 113.746094 C 101.089844 113.648438 101.527344 113.820312 100.796875 112.582031 Z M 100.796875 112.582031 " fill-opacity="1" fill-rule="evenodd"/><path fill="#8cd2d0" d="M 100.796875 112.582031 C 98.824219 109.203125 94.25 114.234375 100.042969 113.746094 C 101.089844 113.648438 101.527344 113.820312 100.796875 112.582031 Z M 100.796875 112.582031 " fill-opacity="1" fill-rule="evenodd"/><path fill="#8cd2d0" d="M 103.765625 109.347656 C 103.621094 114.160156 112.089844 105.144531 105.6875 106.699219 C 103.789062 107.160156 103.8125 107.769531 103.765625 109.347656 Z M 103.765625 109.347656 " fill-opacity="1" fill-rule="evenodd"/><path fill="#8cd2d0" d="M 109.777344 92.753906 C 108.558594 96.421875 117.175781 91.390625 111.871094 91.125 C 110.289062 91.050781 110.191406 91.535156 109.777344 92.753906 Z M 109.777344 92.753906 " fill-opacity="1" fill-rule="evenodd"/><path fill="#8cd2d0" d="M 118.097656 78.148438 C 119.65625 82.035156 123.089844 74.164062 118.660156 75.886719 C 117.34375 76.398438 117.589844 76.882812 118.097656 78.148438 Z M 118.097656 78.148438 " fill-opacity="1" fill-rule="evenodd"/><path fill="#04789d" d="M 92.863281 34.625 C 106.710938 24.90625 119.171875 21.066406 126.226562 25.660156 C 138.882812 33.871094 129.390625 66.046875 105.03125 97.515625 C 80.644531 128.984375 50.640625 147.816406 37.960938 139.601562 C 30.148438 134.523438 30.78125 120.308594 38.15625 102.765625 C 38.640625 103.882812 39.203125 104.976562 39.785156 106.042969 C 36.328125 117.539062 36.988281 126.480469 42.558594 130.101562 C 53.632812 137.269531 79.867188 120.820312 101.160156 93.3125 C 122.457031 65.828125 130.753906 37.710938 119.679688 30.519531 C 114.351562 27.070312 105.492188 29.109375 95.371094 35.210938 C 94.542969 34.992188 93.714844 34.796875 92.863281 34.625 Z M 92.863281 34.625 " fill-opacity="1" fill-rule="evenodd"/></svg>