<svg xmlns="http://www.w3.org/2000/svg" xmlns:xlink="http://www.w3.org/1999/xlink" width="225" zoomAndPan="magnify" viewBox="0 0 168.75 168.75" height="225" preserveAspectRatio="xMidYMid meet" version="1.0"><path fill="#f37b3e" d="M 70.980469 37.132812 C 97.105469 29.695312 124.328125 44.839844 131.769531 70.953125 C 139.207031 97.066406 124.058594 124.277344 97.933594 131.710938 C 71.808594 139.171875 44.585938 124.03125 37.148438 97.917969 C 29.707031 71.804688 44.855469 44.59375 70.980469 37.132812 Z M 70.980469 37.132812 " fill-opacity="1" fill-rule="evenodd"/><path fill="#ee592f" d="M 123.667969 55.128906 C 127.132812 59.785156 129.839844 65.125 131.523438 71.023438 C 138.964844 97.136719 123.816406 124.347656 97.691406 131.785156 C 77.296875 137.613281 56.222656 129.640625 44.417969 113.425781 C 46.5625 107.453125 62.003906 96.527344 72.882812 94.015625 C 89.496094 88.898438 108.839844 93.457031 106.421875 79.316406 C 103.179688 67.125 120.253906 72.121094 123.667969 55.128906 Z M 123.667969 55.128906 " fill-opacity="1" fill-rule="evenodd"/><path fill="#f9af68" d="M 107.59375 41.035156 C 108.277344 41.398438 108.9375 41.765625 109.59375 42.15625 C 104.667969 63.417969 108.179688 71.464844 117.742188 48.203125 C 118.667969 49.054688 119.570312 49.957031 120.449219 50.910156 C 106.667969 91.578125 70.640625 66.441406 35.246094 84.726562 C 35.246094 81.875 35.464844 79.070312 35.929688 76.316406 C 59.441406 39.449219 98.789062 81.679688 107.59375 41.035156 Z M 107.59375 41.035156 " fill-opacity="1" fill-rule="evenodd"/><path fill="#f9af68" d="M 70.980469 37.132812 C 82.203125 33.9375 93.617188 34.914062 103.570312 39.132812 C 82.617188 53.25 77.664062 34.425781 46.199219 53.542969 C 52.34375 45.910156 60.832031 40.035156 70.980469 37.132812 Z M 70.980469 37.132812 " fill-opacity="1" fill-rule="evenodd"/><path fill="#f9af68" d="M 41.441406 108.304688 C 39.660156 105.0625 38.195312 101.601562 37.148438 97.917969 C 36.734375 96.457031 36.390625 94.992188 36.125 93.53125 C 50.734375 84.433594 66.785156 80.363281 84.226562 81.191406 C 91.984375 83.191406 81.859375 94.992188 65.761719 87.507812 C 56.296875 83.09375 47.929688 98.359375 41.441406 108.304688 Z M 41.441406 108.304688 " fill-opacity="1" fill-rule="evenodd"/><path fill="#ee592f" d="M 79.054688 46.59375 C 75.199219 47.691406 72.738281 50.859375 73.519531 53.640625 C 74.324219 56.445312 78.078125 57.808594 81.933594 56.710938 C 85.789062 55.613281 88.273438 52.46875 87.46875 49.664062 C 86.664062 46.886719 82.910156 45.496094 79.054688 46.59375 Z M 79.054688 46.59375 " fill-opacity="1" fill-rule="evenodd"/><path fill="#f9af68" d="M 79.128906 46.910156 C 76.003906 47.789062 73.980469 50.300781 74.617188 52.492188 C 75.25 54.6875 78.273438 55.738281 81.398438 54.859375 C 84.519531 53.957031 86.542969 51.46875 85.933594 49.277344 C 85.300781 47.082031 82.25 46.007812 79.128906 46.910156 Z M 79.128906 46.910156 " fill-opacity="1" fill-rule="evenodd"/><path fill="#ee6145" d="M 112.179688 76.21875 C 110.816406 77.851562 108.9375 78.316406 107.9375 77.21875 C 103.8125 72.632812 117.035156 70.367188 112.179688 76.21875 Z M 112.179688 76.21875 " fill-opacity="1" fill-rule="evenodd"/><path fill="#ee6145" d="M 133.644531 85.898438 C 133.035156 106.746094 119.082031 125.691406 97.933594 131.710938 C 78.957031 137.125 59.371094 130.617188 47.246094 116.59375 C 58.6875 115.546875 65.734375 106.136719 79.714844 104.574219 C 89.691406 104.597656 97.714844 100.1875 104.203125 92.261719 C 114.839844 80.121094 124.425781 80.558594 133.644531 85.898438 Z M 133.644531 85.898438 " fill-opacity="1" fill-rule="evenodd"/><path fill="#f37b3e" d="M 39 103.234375 C 38.292969 101.503906 37.660156 99.746094 37.148438 97.917969 C 56.589844 86.359375 51.734375 89.140625 39 103.234375 Z M 39 103.234375 " fill-opacity="1" fill-rule="evenodd"/><path fill="#ee6145" d="M 72.371094 104.453125 C 76.078125 103.40625 78.542969 100.648438 77.882812 98.308594 C 75.078125 88.433594 59.199219 108.207031 72.371094 104.453125 Z M 72.371094 104.453125 " fill-opacity="1" fill-rule="evenodd"/><path fill="#f99f51" d="M 126.523438 58.929688 C 128.742188 62.589844 130.523438 66.613281 131.769531 70.953125 C 136.792969 88.554688 131.546875 106.648438 119.570312 118.863281 C 105.226562 119.472656 132.867188 83.433594 121.351562 93.140625 C 84.398438 124.300781 99.640625 108.816406 55.320312 124.058594 C 52.929688 122.300781 50.710938 120.324219 48.660156 118.179688 C 98.933594 113.863281 99.617188 97.40625 126.523438 58.929688 Z M 126.523438 58.929688 " fill-opacity="1" fill-rule="evenodd"/><path fill="#f38375" d="M 115.742188 108.011719 C 109.691406 115.328125 105.9375 105.769531 113.425781 102.699219 C 116.351562 101.503906 119.277344 103.769531 115.742188 108.011719 Z M 115.742188 108.011719 " fill-opacity="1" fill-rule="evenodd"/><path fill="#ee592f" d="M 100.15625 131.03125 C 99.421875 131.273438 98.691406 131.519531 97.933594 131.710938 C 82.078125 136.246094 65.785156 132.417969 53.785156 122.886719 C 63.175781 127.566406 74.273438 131.394531 79.347656 126.566406 C 86.886719 119.375 96.128906 115.597656 100.15625 131.03125 Z M 100.15625 131.03125 " fill-opacity="1" fill-rule="evenodd"/><path fill="#ee592f" d="M 128.328125 62.199219 C 129.742188 64.953125 130.890625 67.878906 131.769531 70.953125 C 108.398438 94.164062 117.230469 84.117188 128.328125 62.199219 Z M 128.328125 62.199219 " fill-opacity="1" fill-rule="evenodd"/><path fill="#ee592f" d="M 132.71875 74.976562 C 134.988281 86.335938 133.0625 97.746094 127.9375 107.402344 C 134.28125 84.3125 114.691406 96.601562 132.71875 74.976562 Z M 132.71875 74.976562 " fill-opacity="1" fill-rule="evenodd"/><path fill="#f37b3e" d="M 133.621094 82.628906 C 133.769531 86.410156 133.476562 90.140625 132.769531 93.75 C 131.644531 92.921875 130.769531 91.726562 130.351562 90.261719 C 129.476562 87.191406 130.914062 83.996094 133.621094 82.628906 Z M 133.621094 82.628906 " fill-opacity="1" fill-rule="evenodd"/></svg>